<svg width="20" height="20" viewBox="0 0 20 20" fill="none" xmlns="http://www.w3.org/2000/svg">
<path d="M7.91699 11.4583C7.91699 12.2667 8.542 12.9167 9.30867 12.9167H10.8753C11.542 12.9167 12.0837 12.35 12.0837 11.6417C12.0837 10.8833 11.7503 10.6083 11.2587 10.4333L8.75033 9.55834C8.25866 9.38334 7.92533 9.11668 7.92533 8.35001C7.92533 7.65001 8.46699 7.07501 9.13365 7.07501H10.7003C11.467 7.07501 12.092 7.72501 12.092 8.53335" stroke="#2A8E9E" stroke-width="1.5" stroke-linecap="round" stroke-linejoin="round"/>
<path d="M10 6.25V13.75" stroke="#2A8E9E" stroke-width="1.5" stroke-linecap="round" stroke-linejoin="round"/>
<path d="M10.0003 1.66669C5.40033 1.66669 1.66699 5.40002 1.66699 10C1.66699 13.2834 3.567 16.125 6.33366 17.4833" stroke="#2A8E9E" stroke-width="1.5" stroke-linecap="round" stroke-linejoin="round"/>
<path d="M18.3333 10C18.3333 14.6 14.6 18.3333 10 18.3333" stroke="#2A8E9E" stroke-width="1.5" stroke-linecap="round" stroke-linejoin="round"/>
<path d="M18.3333 5.00002V1.66669H15" stroke="#2A8E9E" stroke-width="1.5" stroke-linecap="round" stroke-linejoin="round"/>
<path d="M14.167 5.83335L18.3337 1.66669" stroke="#2A8E9E" stroke-width="1.5" stroke-linecap="round" stroke-linejoin="round"/>
</svg>
