<svg width="1255" height="547" viewBox="0 0 1255 547" fill="none" xmlns="http://www.w3.org/2000/svg">
<g filter="url(#filter0_d_9620_1053)">
<path d="M26.6846 337C76.215 372 191.58 438 256.795 422C338.314 402 358.435 299 484.325 275C610.215 251 702.569 334.5 800.082 214C897.595 93.5003 945.061 14.5003 1076.11 31.5003" stroke="#F57059" stroke-width="5" stroke-linecap="round" stroke-linejoin="round"/>
</g>
<path opacity="0.08" d="M370.355 547V426.946L342.815 443.776V416.644L370.355 400.12H395.447V547H370.355Z" fill="#1D1E20"/>
<rect x="94.1543" y="380" width="66.0406" height="64" rx="20" fill="white"/>
<rect x="114.792" y="400" width="23.7333" height="23" rx="10" fill="#C4C4C4"/>
<path opacity="0.08" d="M822.665 414.796V393.376L885.497 337.378C890.393 333.026 893.793 328.912 895.697 325.036C897.601 321.16 898.553 317.42 898.553 313.816C898.553 308.92 897.499 304.568 895.391 300.76C893.283 296.884 890.359 293.824 886.619 291.58C882.947 289.336 878.697 288.214 873.869 288.214C868.769 288.214 864.247 289.404 860.303 291.784C856.427 294.096 853.401 297.19 851.225 301.066C849.049 304.942 848.029 309.124 848.165 313.612H822.869C822.869 303.82 825.045 295.286 829.397 288.01C833.817 280.734 839.869 275.09 847.553 271.078C855.305 267.066 864.247 265.06 874.379 265.06C883.763 265.06 892.195 267.168 899.675 271.384C907.155 275.532 913.037 281.312 917.321 288.724C921.605 296.068 923.747 304.534 923.747 314.122C923.747 321.126 922.795 327.008 920.891 331.768C918.987 336.528 916.131 340.914 912.323 344.926C908.583 348.938 903.925 353.392 898.349 358.288L853.775 397.762L851.531 391.642H923.747V414.796H822.665Z" fill="#1D1E20"/>
<rect x="637.045" y="248" width="66.0406" height="64" rx="20" fill="white"/>
<rect x="657.681" y="268" width="23.7333" height="23" rx="10" fill="#C4C4C4"/>
<path opacity="0.08" d="M1204.13 169.754C1196.79 169.754 1189.85 168.326 1183.32 165.47C1176.79 162.614 1171.12 158.568 1166.29 153.332C1161.53 148.096 1158.09 141.908 1155.99 134.768L1179.75 128.342C1181.45 134.19 1184.55 138.712 1189.03 141.908C1193.59 145.036 1198.59 146.566 1204.03 146.498C1208.86 146.498 1213.17 145.376 1216.98 143.132C1220.79 140.888 1223.78 137.862 1225.96 134.054C1228.13 130.178 1229.22 125.86 1229.22 121.1C1229.22 113.824 1226.88 107.738 1222.18 102.842C1217.49 97.946 1211.44 95.498 1204.03 95.498C1201.78 95.498 1199.57 95.804 1197.4 96.416C1195.29 97.028 1193.25 97.878 1191.28 98.966L1180.06 79.586L1229.43 37.358L1231.57 43.274H1161.7V20.12H1251.76V43.376L1212.09 81.524L1211.88 74.282C1220.79 74.894 1228.37 77.376 1234.63 81.728C1240.95 86.08 1245.78 91.69 1249.11 98.558C1252.51 105.426 1254.21 112.94 1254.21 121.1C1254.21 130.348 1251.93 138.644 1247.38 145.988C1242.89 153.332 1236.84 159.146 1229.22 163.43C1221.67 167.646 1213.31 169.754 1204.13 169.754Z" fill="#1D1E20"/>
<rect x="954.757" width="66.0406" height="64" rx="20" fill="white"/>
<rect x="975.395" y="20" width="23.7333" height="23" rx="10" fill="#C4C4C4"/>
<defs>
<filter id="filter0_d_9620_1053" x="0.18457" y="26.7036" width="1102.43" height="448.255" filterUnits="userSpaceOnUse" color-interpolation-filters="sRGB">
<feFlood flood-opacity="0" result="BackgroundImageFix"/>
<feColorMatrix in="SourceAlpha" type="matrix" values="0 0 0 0 0 0 0 0 0 0 0 0 0 0 0 0 0 0 127 0" result="hardAlpha"/>
<feOffset dy="24"/>
<feGaussianBlur stdDeviation="12"/>
<feComposite in2="hardAlpha" operator="out"/>
<feColorMatrix type="matrix" values="0 0 0 0 0.215686 0 0 0 0 0.203922 0 0 0 0 0.662745 0 0 0 0.3 0"/>
<feBlend mode="normal" in2="BackgroundImageFix" result="effect1_dropShadow_9620_1053"/>
<feBlend mode="normal" in="SourceGraphic" in2="effect1_dropShadow_9620_1053" result="shape"/>
</filter>
</defs>
</svg>
