<svg width="362" height="357" viewBox="0 0 362 357" fill="none" xmlns="http://www.w3.org/2000/svg">
<path d="M78.8096 33V357" stroke="url(#paint0_linear_9620_1053)"/>
<path d="M127.959 33V357" stroke="url(#paint1_linear_9620_1053)"/>
<path d="M177.108 33V357" stroke="url(#paint2_linear_9620_1053)"/>
<path d="M226.259 33V357" stroke="url(#paint3_linear_9620_1053)"/>
<path d="M275.408 33V357" stroke="url(#paint4_linear_9620_1053)"/>
<path d="M29.6602 79.2861H324.558" stroke="url(#paint5_linear_9620_1053)"/>
<path d="M29.6602 125.572H324.558" stroke="url(#paint6_linear_9620_1053)"/>
<path d="M29.6602 171.858H324.558" stroke="url(#paint7_linear_9620_1053)"/>
<path d="M29.6602 218.142H324.558" stroke="url(#paint8_linear_9620_1053)"/>
<path d="M29.6602 264.428H324.558" stroke="url(#paint9_linear_9620_1053)"/>
<path d="M29.6602 310.714H324.558" stroke="url(#paint10_linear_9620_1053)"/>
<g filter="url(#filter0_d_9620_1053)">
<rect width="43.2526" height="43.9991" rx="5" transform="matrix(0.99937 0.0355025 -0.0343067 0.999411 231.699 6)" fill="white"/>
<rect x="0.241266" y="0.258728" width="42.7526" height="43.4991" rx="4.75" transform="matrix(0.99937 0.0355025 -0.0343067 0.999411 231.708 5.99159)" stroke="#F2F2F2" stroke-width="0.5"/>
<path d="M252.858 30.8901C254.041 30.9321 255.033 30.0072 255.073 28.8243C255.114 27.6414 254.188 26.6484 253.005 26.6064C251.822 26.5643 250.83 27.4892 250.79 28.6721C250.749 29.8551 251.675 30.8481 252.858 30.8901Z" fill="#00D8FF"/>
<path fill-rule="evenodd" clip-rule="evenodd" d="M253.081 24.3932C255.957 24.4954 258.614 25.0029 260.604 25.7679C263.003 26.6897 264.451 28.0091 264.412 29.1559C264.371 30.3509 262.743 31.6402 260.108 32.4111C258.115 32.9939 255.51 33.2426 252.781 33.1456C249.982 33.0462 247.343 32.6322 245.374 31.8805C242.882 30.9293 241.411 29.5125 241.451 28.3402C241.49 27.2028 242.958 25.9967 245.379 25.2474C247.425 24.6144 250.177 24.29 253.081 24.3932L253.081 24.3932Z" stroke="#00D8FF" stroke-width="2"/>
<path fill-rule="evenodd" clip-rule="evenodd" d="M249.215 26.4484C250.737 24.0082 252.502 21.9602 254.156 20.6188C256.15 19.0026 258.016 18.4082 258.989 19.0163C260.004 19.6501 260.309 21.7055 259.663 24.3749C259.175 26.3931 258.092 28.7738 256.647 31.0901C255.165 33.465 253.491 35.5442 251.858 36.8735C249.792 38.5556 247.831 39.1212 246.836 38.4995C245.87 37.8967 245.557 36.0209 246.116 33.5481C246.587 31.4587 247.678 28.9123 249.215 26.4483L249.215 26.4484Z" stroke="#00D8FF" stroke-width="2"/>
<path fill-rule="evenodd" clip-rule="evenodd" d="M249.068 30.8272C247.713 28.2877 246.818 25.7337 246.481 23.6284C246.074 21.0919 246.489 19.1784 247.501 18.6391C248.556 18.0771 250.489 18.8412 252.479 20.737C253.984 22.1703 255.506 24.3001 256.793 26.7112C258.112 29.1833 259.079 31.6746 259.417 33.7543C259.844 36.3862 259.357 38.3682 258.322 38.9194C257.319 39.4544 255.538 38.787 253.674 37.0658C252.099 35.6116 250.437 33.392 249.068 30.8272L249.068 30.8272Z" stroke="#00D8FF" stroke-width="2"/>
</g>
<g filter="url(#filter1_d_9620_1053)">
<rect x="115.971" y="6.52246" width="43.6242" height="43.6242" rx="5" transform="rotate(-2 115.971 6.52246)" fill="white"/>
<rect x="116.229" y="6.76358" width="43.1242" height="43.1242" rx="4.75" transform="rotate(-2 116.229 6.76358)" stroke="#F2F2F2" stroke-width="0.5"/>
<g clip-path="url(#clip0_9620_1053)">
<path d="M148.88 15.1911L147.707 36.8428L139.13 39.5462L130.409 37.4502L127.73 15.9297L148.88 15.1911Z" fill="#264DE4"/>
<path d="M139.078 37.7107L146.009 35.5261L147.011 17.0238L138.366 17.3257L139.078 37.7107Z" fill="#2965F1"/>
<path d="M138.647 25.3322L132.484 25.5474L132.814 28.1867L138.739 27.9798L138.647 25.3322Z" fill="#EBEBEB"/>
<path d="M138.459 19.9732L138.45 19.9736L131.82 20.2051L132.153 22.8443L138.552 22.6209L138.459 19.9732Z" fill="#EBEBEB"/>
<path d="M132.979 29.5063L133.495 33.6506L138.971 34.9668L138.983 34.963L138.887 32.2083L138.875 32.2118L135.899 31.5186L135.636 29.4135L134.203 29.4636L132.979 29.5063Z" fill="#EBEBEB"/>
<path d="M141.99 27.8663L141.803 31.3108L138.878 32.211L138.974 34.9655L144.349 33.2717L144.373 32.8229L144.752 25.8308L144.792 25.1176L145.083 19.742L138.45 19.9736L138.543 22.6213L142.273 22.491L142.127 25.2107L138.637 25.3325L138.73 27.9801L141.99 27.8663Z" fill="white"/>
</g>
</g>
<g filter="url(#filter2_d_9620_1053)">
<rect width="43.3022" height="43.9503" rx="5" transform="matrix(0.964799 -0.26299 0.254705 0.967019 10 32.3882)" fill="white"/>
<rect x="0.304876" y="0.176007" width="42.8022" height="43.4503" rx="4.75" transform="matrix(0.964799 -0.26299 0.254705 0.967019 9.9659 32.4742)" stroke="#F2F2F2" stroke-width="0.5"/>
<g clip-path="url(#clip1_9620_1053)">
<path d="M36.0129 60.3459C38.1174 59.7723 39.3745 57.5948 38.8189 55.4855L37.8124 51.6642L34 52.7035C31.8955 53.2771 30.6384 55.4546 31.194 57.5639C31.7496 59.6732 33.9084 60.9196 36.0129 60.3459Z" fill="#0ACF83"/>
<path d="M29.1813 49.9218C28.6257 47.8125 29.8828 45.635 31.9873 45.0614L35.7997 44.0221L37.8127 51.6646L34.0002 52.7038C31.8958 53.2775 29.7369 52.0311 29.1813 49.9218Z" fill="#A259FF"/>
<path d="M27.1676 42.2792C26.612 40.1699 27.8691 37.9924 29.9736 37.4188L33.7861 36.3796L35.799 44.022L31.9866 45.0613C29.8821 45.6349 27.7232 44.3886 27.1676 42.2792Z" fill="#F24E1E"/>
<path d="M33.7861 36.3794L37.5986 35.3402C39.7031 34.7665 41.862 36.0129 42.4175 38.1222C42.9731 40.2315 41.716 42.409 39.6116 42.9826L35.7991 44.0219L33.7861 36.3794Z" fill="#FF7262"/>
<path d="M44.4312 45.7648C44.9868 47.8741 43.7297 50.0516 41.6252 50.6252C39.5208 51.1989 37.3619 49.9525 36.8063 47.8432C36.2507 45.7339 37.5078 43.5564 39.6123 42.9828C41.7167 42.4091 43.8756 43.6554 44.4312 45.7648Z" fill="#1ABCFE"/>
</g>
</g>
<path d="M311.088 68.43L312.939 46.8613L333.759 50.5324L328.122 71.4335L319.159 72.3282" fill="#E34F26"/>
<path d="M321.679 58.3027L318.217 57.6922L318.458 54.9741L322.151 55.6252L322.607 53.0401L322.561 53.032L316.052 51.8843L315.976 52.5849L315.352 59.9002L321.215 60.934L321.679 58.3027ZM320.482 65.0886L320.436 65.0805L317.666 63.7829L317.848 61.673L316.463 61.4288L315.263 61.2172L314.862 65.3827L319.956 67.8041L320.002 67.8122L320.482 65.0886Z" fill="#EBEBEB"/>
<g filter="url(#filter3_d_9620_1053)">
<path d="M310.407 219.094C311.269 214.761 315.337 212.464 319.492 213.964L345.475 223.344C349.631 224.844 352.301 229.573 351.44 233.907L346.051 261C345.189 265.334 341.122 267.63 336.966 266.13L310.983 256.75C306.827 255.25 304.157 250.521 305.019 246.188L310.407 219.094Z" fill="white"/>
<path d="M319.444 214.21L345.427 223.589C349.453 225.043 352.039 229.624 351.204 233.822L345.816 260.915C344.981 265.113 341.04 267.338 337.015 265.885L311.032 256.505C307.006 255.052 304.419 250.471 305.254 246.273L310.642 219.179C311.477 214.981 315.418 212.756 319.444 214.21Z" stroke="#F2F2F2" stroke-width="0.5"/>
<path d="M324.661 229.52C324.983 227.9 325.576 227.169 327.964 227.581C329.585 227.86 331.598 228.549 333.406 229.545C334.833 230.333 335.849 231.928 335.546 233.45L334.483 238.797C334.171 240.365 332.708 241.213 331.194 240.667L325.752 238.702C323.905 238.035 322.022 239.113 321.654 240.967L321.144 243.532L319.273 242.856C317.69 242.285 317.005 240.764 316.948 238.962C316.87 236.54 317.157 235.217 318.083 233.258C318.887 231.549 320.468 231.064 322.051 231.636L329.537 234.338L329.679 233.624L324.235 231.659L324.661 229.52L324.661 229.52Z" fill="url(#paint11_linear_9620_1053)"/>
<path d="M332.144 250.56C331.821 252.181 330.307 252.514 328.855 252.428C326.669 252.301 325.033 251.609 323.413 250.464C322.06 249.508 320.955 248.152 321.258 246.63L322.321 241.284C322.628 239.745 324.121 238.876 325.611 239.414L331.052 241.378C332.865 242.033 334.78 240.976 335.165 239.042L335.661 236.549L337.701 237.285C339.286 237.857 339.788 239.352 339.856 241.118C339.951 243.572 339.64 245.268 338.722 246.822C337.831 248.332 337.016 249.261 335.433 248.69L327.269 245.743L327.127 246.457L332.569 248.421L332.144 250.56Z" fill="url(#paint12_linear_9620_1053)"/>
<path d="M326.092 229.657C326.209 229.065 326.76 228.751 327.325 228.955C327.887 229.158 328.25 229.802 328.132 230.394C328.015 230.984 327.462 231.297 326.9 231.094C326.335 230.89 325.974 230.247 326.092 229.657ZM328.671 249.687C328.788 249.097 329.341 248.784 329.904 248.987C330.468 249.191 330.829 249.834 330.711 250.424C330.594 251.016 330.043 251.33 329.478 251.126C328.916 250.923 328.553 250.279 328.671 249.687Z" fill="white"/>
</g>
<g filter="url(#filter4_d_9620_1053)">
<rect width="43.3399" height="43.9131" rx="5" transform="matrix(0.93778 -0.347229 0.336869 0.941552 10 223.049)" fill="white"/>
<rect x="0.318662" y="0.148581" width="42.8399" height="43.4131" rx="4.75" transform="matrix(0.93778 -0.347229 0.336869 0.941552 9.96978 223.168)" stroke="#F2F2F2" stroke-width="0.5"/>
<g clip-path="url(#clip2_9620_1053)">
<path d="M22.7314 228.951L45.2382 220.618L53.323 243.215L30.8163 251.548L22.7314 228.951Z" fill="#F7DF1E"/>
<path d="M35.4059 245.644L36.7539 243.96C37.2978 244.428 37.7791 244.817 38.5041 244.548C39.1991 244.291 39.5396 243.856 39.1598 242.794L36.5765 235.574L38.6915 234.79L41.2856 242.041C42.0725 244.24 41.1466 245.717 39.2731 246.411C37.5812 247.037 36.2842 246.521 35.4058 245.644" fill="black"/>
<path d="M42.8035 242.647L44.1674 241.008C44.8867 241.584 45.6713 241.912 46.7137 241.526C47.5901 241.201 47.9915 240.554 47.7744 239.948C47.5139 239.22 46.8476 239.174 45.7288 239.108L45.1187 239.076C43.3594 238.989 42.054 238.544 41.4353 236.815C40.8655 235.222 41.6399 233.561 43.5285 232.862C44.8731 232.364 46.0083 232.476 47.1427 233.448L45.8758 235.119C45.2799 234.601 44.7949 234.489 44.1907 234.713C43.5712 234.942 43.3195 235.482 43.504 235.997C43.7319 236.635 44.217 236.747 45.2645 236.806L45.8747 236.838C47.9493 236.946 49.2438 237.359 49.8787 239.134C50.5625 241.045 49.4413 242.646 47.432 243.39C45.468 244.117 43.8624 243.646 42.8035 242.647Z" fill="black"/>
</g>
</g>
<defs>
<filter id="filter0_d_9620_1053" x="219.949" y="0.88" width="65.2154" height="65.9888" filterUnits="userSpaceOnUse" color-interpolation-filters="sRGB">
<feFlood flood-opacity="0" result="BackgroundImageFix"/>
<feColorMatrix in="SourceAlpha" type="matrix" values="0 0 0 0 0 0 0 0 0 0 0 0 0 0 0 0 0 0 127 0" result="hardAlpha"/>
<feOffset dy="5.12"/>
<feGaussianBlur stdDeviation="5.12"/>
<feComposite in2="hardAlpha" operator="out"/>
<feColorMatrix type="matrix" values="0 0 0 0 0 0 0 0 0 0 0 0 0 0 0 0 0 0 0.15 0"/>
<feBlend mode="normal" in2="BackgroundImageFix" result="effect1_dropShadow_9620_1053"/>
<feBlend mode="normal" in="SourceGraphic" in2="effect1_dropShadow_9620_1053" result="shape"/>
</filter>
<filter id="filter1_d_9620_1053" x="105.731" y="-0.12" width="65.6001" height="65.6001" filterUnits="userSpaceOnUse" color-interpolation-filters="sRGB">
<feFlood flood-opacity="0" result="BackgroundImageFix"/>
<feColorMatrix in="SourceAlpha" type="matrix" values="0 0 0 0 0 0 0 0 0 0 0 0 0 0 0 0 0 0 127 0" result="hardAlpha"/>
<feOffset dy="5.12"/>
<feGaussianBlur stdDeviation="5.12"/>
<feComposite in2="hardAlpha" operator="out"/>
<feColorMatrix type="matrix" values="0 0 0 0 0 0 0 0 0 0 0 0 0 0 0 0 0 0 0.15 0"/>
<feBlend mode="normal" in2="BackgroundImageFix" result="effect1_dropShadow_9620_1053"/>
<feBlend mode="normal" in="SourceGraphic" in2="effect1_dropShadow_9620_1053" result="shape"/>
</filter>
<filter id="filter2_d_9620_1053" x="-0.24" y="15.88" width="73.4527" height="74.3692" filterUnits="userSpaceOnUse" color-interpolation-filters="sRGB">
<feFlood flood-opacity="0" result="BackgroundImageFix"/>
<feColorMatrix in="SourceAlpha" type="matrix" values="0 0 0 0 0 0 0 0 0 0 0 0 0 0 0 0 0 0 127 0" result="hardAlpha"/>
<feOffset dy="5.12"/>
<feGaussianBlur stdDeviation="5.12"/>
<feComposite in2="hardAlpha" operator="out"/>
<feColorMatrix type="matrix" values="0 0 0 0 0 0 0 0 0 0 0 0 0 0 0 0 0 0 0.15 0"/>
<feBlend mode="normal" in2="BackgroundImageFix" result="effect1_dropShadow_9620_1053"/>
<feBlend mode="normal" in="SourceGraphic" in2="effect1_dropShadow_9620_1053" result="shape"/>
</filter>
<filter id="filter3_d_9620_1053" x="293.218" y="206.128" width="70.022" height="78.0786" filterUnits="userSpaceOnUse" color-interpolation-filters="sRGB">
<feFlood flood-opacity="0" result="BackgroundImageFix"/>
<feColorMatrix in="SourceAlpha" type="matrix" values="0 0 0 0 0 0 0 0 0 0 0 0 0 0 0 0 0 0 127 0" result="hardAlpha"/>
<feOffset dy="5.12"/>
<feGaussianBlur stdDeviation="5.12"/>
<feComposite in2="hardAlpha" operator="out"/>
<feColorMatrix type="matrix" values="0 0 0 0 0 0 0 0 0 0 0 0 0 0 0 0 0 0 0.15 0"/>
<feBlend mode="normal" in2="BackgroundImageFix" result="effect1_dropShadow_9620_1053"/>
<feBlend mode="normal" in="SourceGraphic" in2="effect1_dropShadow_9620_1053" result="shape"/>
</filter>
<filter id="filter4_d_9620_1053" x="-0.24" y="202.88" width="75.9165" height="76.8755" filterUnits="userSpaceOnUse" color-interpolation-filters="sRGB">
<feFlood flood-opacity="0" result="BackgroundImageFix"/>
<feColorMatrix in="SourceAlpha" type="matrix" values="0 0 0 0 0 0 0 0 0 0 0 0 0 0 0 0 0 0 127 0" result="hardAlpha"/>
<feOffset dy="5.12"/>
<feGaussianBlur stdDeviation="5.12"/>
<feComposite in2="hardAlpha" operator="out"/>
<feColorMatrix type="matrix" values="0 0 0 0 0 0 0 0 0 0 0 0 0 0 0 0 0 0 0.15 0"/>
<feBlend mode="normal" in2="BackgroundImageFix" result="effect1_dropShadow_9620_1053"/>
<feBlend mode="normal" in="SourceGraphic" in2="effect1_dropShadow_9620_1053" result="shape"/>
</filter>
<linearGradient id="paint0_linear_9620_1053" x1="79.3096" y1="33" x2="79.3096" y2="357" gradientUnits="userSpaceOnUse">
<stop stop-color="white"/>
<stop offset="0.5" stop-color="#CCCCCC"/>
<stop offset="1" stop-color="white"/>
</linearGradient>
<linearGradient id="paint1_linear_9620_1053" x1="128.459" y1="33" x2="128.459" y2="357" gradientUnits="userSpaceOnUse">
<stop stop-color="white"/>
<stop offset="0.5" stop-color="#CCCCCC"/>
<stop offset="1" stop-color="white"/>
</linearGradient>
<linearGradient id="paint2_linear_9620_1053" x1="177.608" y1="33" x2="177.608" y2="357" gradientUnits="userSpaceOnUse">
<stop stop-color="white"/>
<stop offset="0.5" stop-color="#CCCCCC"/>
<stop offset="1" stop-color="white"/>
</linearGradient>
<linearGradient id="paint3_linear_9620_1053" x1="226.759" y1="33" x2="226.759" y2="357" gradientUnits="userSpaceOnUse">
<stop stop-color="white"/>
<stop offset="0.5" stop-color="#CCCCCC"/>
<stop offset="1" stop-color="white"/>
</linearGradient>
<linearGradient id="paint4_linear_9620_1053" x1="275.908" y1="33" x2="275.908" y2="357" gradientUnits="userSpaceOnUse">
<stop stop-color="white"/>
<stop offset="0.5" stop-color="#CCCCCC"/>
<stop offset="1" stop-color="white"/>
</linearGradient>
<linearGradient id="paint5_linear_9620_1053" x1="177.109" y1="79.2861" x2="177.109" y2="80.2861" gradientUnits="userSpaceOnUse">
<stop stop-color="white"/>
<stop offset="0.5" stop-color="#CCCCCC"/>
<stop offset="1" stop-color="white"/>
</linearGradient>
<linearGradient id="paint6_linear_9620_1053" x1="177.109" y1="125.572" x2="177.109" y2="126.572" gradientUnits="userSpaceOnUse">
<stop stop-color="white"/>
<stop offset="0.5" stop-color="#CCCCCC"/>
<stop offset="1" stop-color="white"/>
</linearGradient>
<linearGradient id="paint7_linear_9620_1053" x1="177.109" y1="171.858" x2="177.109" y2="172.858" gradientUnits="userSpaceOnUse">
<stop stop-color="white"/>
<stop offset="0.5" stop-color="#CCCCCC"/>
<stop offset="1" stop-color="white"/>
</linearGradient>
<linearGradient id="paint8_linear_9620_1053" x1="177.109" y1="218.142" x2="177.109" y2="219.142" gradientUnits="userSpaceOnUse">
<stop stop-color="white"/>
<stop offset="0.5" stop-color="#CCCCCC"/>
<stop offset="1" stop-color="white"/>
</linearGradient>
<linearGradient id="paint9_linear_9620_1053" x1="177.109" y1="264.428" x2="177.109" y2="265.428" gradientUnits="userSpaceOnUse">
<stop stop-color="white"/>
<stop offset="0.5" stop-color="#CCCCCC"/>
<stop offset="1" stop-color="white"/>
</linearGradient>
<linearGradient id="paint10_linear_9620_1053" x1="177.109" y1="310.714" x2="177.109" y2="311.714" gradientUnits="userSpaceOnUse">
<stop stop-color="white"/>
<stop offset="0.5" stop-color="#CCCCCC"/>
<stop offset="1" stop-color="white"/>
</linearGradient>
<linearGradient id="paint11_linear_9620_1053" x1="334.827" y1="237.067" x2="317.602" y2="233.5" gradientUnits="userSpaceOnUse">
<stop stop-color="#366A96"/>
<stop offset="1" stop-color="#3679B0"/>
</linearGradient>
<linearGradient id="paint12_linear_9620_1053" x1="339.096" y1="247.187" x2="304.987" y2="240.403" gradientUnits="userSpaceOnUse">
<stop stop-color="#FFC836"/>
<stop offset="1" stop-color="#FFE873"/>
</linearGradient>
<clipPath id="clip0_9620_1053">
<rect width="24" height="24" fill="white" transform="translate(126.307 15.9795) rotate(-2)"/>
</clipPath>
<clipPath id="clip1_9620_1053">
<rect width="24" height="24" fill="white" transform="matrix(0.964799 -0.26299 0.254705 0.967019 22.1885 39.4043)"/>
</clipPath>
<clipPath id="clip2_9620_1053">
<rect width="24" height="24" fill="white" transform="matrix(0.93778 -0.347229 0.336869 0.941552 22.7314 228.951)"/>
</clipPath>
</defs>
</svg>
