<svg width="1190" height="653" viewBox="0 0 1190 653" fill="none" xmlns="http://www.w3.org/2000/svg">
<path d="M273.833 0V653" stroke="url(#paint0_linear_9620_1053)"/>
<path d="M443.666 0V653" stroke="url(#paint1_linear_9620_1053)"/>
<path d="M613.5 0V653" stroke="url(#paint2_linear_9620_1053)"/>
<path d="M783.333 0V653" stroke="url(#paint3_linear_9620_1053)"/>
<path d="M953.166 0V653" stroke="url(#paint4_linear_9620_1053)"/>
<path d="M104 93.2856H1123" stroke="url(#paint5_linear_9620_1053)"/>
<path d="M104 186.571H1123" stroke="url(#paint6_linear_9620_1053)"/>
<path d="M104 279.857H1123" stroke="url(#paint7_linear_9620_1053)"/>
<path d="M104 373.143H1123" stroke="url(#paint8_linear_9620_1053)"/>
<path d="M104 466.429H1123" stroke="url(#paint9_linear_9620_1053)"/>
<path d="M104 559.714H1123" stroke="url(#paint10_linear_9620_1053)"/>
<g filter="url(#filter0_d_9620_1053)">
<rect x="7" y="411.941" width="70" height="70" rx="12.8" transform="rotate(-20 7 411.941)" fill="white"/>
<rect x="7.32043" y="412.091" width="69.5" height="69.5" rx="12.55" transform="rotate(-20 7.32043 412.091)" stroke="#F2F2F2" stroke-width="0.5"/>
<g clip-path="url(#clip0_9620_1053)">
<path d="M26.2256 420.906L63.8133 407.225L77.4941 444.813L39.9064 458.494L26.2256 420.906Z" fill="#F7DF1E"/>
<path d="M47.5416 448.72L49.7845 445.932C50.6975 446.714 51.5053 447.363 52.7162 446.922C53.8768 446.5 54.4434 445.779 53.8006 444.013L49.4292 432.003L52.9615 430.718L57.351 442.778C58.6826 446.436 57.1442 448.882 54.0154 450.021C51.1897 451.049 49.0168 450.183 47.5414 448.72" fill="black"/>
<path d="M59.8943 443.795L62.1643 441.083C63.3714 442.044 64.686 442.594 66.4269 441.961C67.8905 441.428 68.5574 440.357 68.1901 439.347C67.7493 438.136 66.6344 438.056 64.7625 437.938L63.7419 437.88C60.7985 437.723 58.6121 436.976 57.5652 434.1C56.6009 431.45 57.8847 428.697 61.0387 427.549C63.2843 426.732 65.1838 426.926 67.0881 428.548L64.9807 431.315C63.9803 430.45 63.1684 430.26 62.1592 430.627C61.1247 431.004 60.7074 431.899 61.0196 432.756C61.4053 433.816 62.2175 434.006 63.97 434.112L64.9907 434.169C68.4617 434.363 70.6297 435.059 71.7041 438.011C72.8613 441.19 70.997 443.84 67.6414 445.062C64.3613 446.256 61.6725 445.463 59.8943 443.795Z" fill="black"/>
</g>
</g>
<g filter="url(#filter1_d_9620_1053)">
<rect x="231" y="113.117" width="70" height="70" rx="12.8" transform="rotate(-15 231 113.117)" fill="white"/>
<rect x="231.306" y="113.294" width="69.5" height="69.5" rx="12.55" transform="rotate(-15 231.306 113.294)" stroke="#F2F2F2" stroke-width="0.5"/>
<g clip-path="url(#clip1_9620_1053)">
<path d="M272.591 158.639C276.103 157.698 278.189 154.085 277.248 150.573L275.543 144.211L269.182 145.916C265.67 146.857 263.584 150.471 264.525 153.982C265.466 157.494 269.079 159.58 272.591 158.639Z" fill="#0ACF83"/>
<path d="M261.116 141.259C260.175 137.747 262.261 134.134 265.773 133.193L272.134 131.488L275.543 144.211L269.182 145.916C265.67 146.857 262.057 144.771 261.116 141.259Z" fill="#A259FF"/>
<path d="M257.707 128.536C256.766 125.024 258.852 121.411 262.363 120.47L268.725 118.765L272.134 131.488L265.773 133.193C262.261 134.134 258.647 132.047 257.707 128.536Z" fill="#F24E1E"/>
<path d="M268.726 118.765L275.087 117.061C278.599 116.12 282.212 118.206 283.153 121.718C284.094 125.229 282.008 128.843 278.496 129.784L272.135 131.488L268.726 118.765Z" fill="#FF7262"/>
<path d="M286.561 134.441C287.502 137.952 285.416 141.566 281.904 142.507C278.393 143.448 274.779 141.361 273.838 137.85C272.897 134.338 274.984 130.725 278.495 129.784C282.007 128.843 285.62 130.929 286.561 134.441Z" fill="#1ABCFE"/>
</g>
</g>
<g filter="url(#filter2_d_9620_1053)">
<rect x="942.155" y="103" width="70" height="70" rx="12.8" transform="rotate(10 942.155 103)" fill="white"/>
<rect x="942.358" y="103.29" width="69.5" height="69.5" rx="12.55" transform="rotate(10 942.358 103.29)" stroke="#F2F2F2" stroke-width="0.5"/>
<g clip-path="url(#clip2_9620_1053)">
<path d="M953.546 156.732L956.632 120.784L991.331 126.903L981.936 161.738L966.997 163.229" fill="#E34F26"/>
<path d="M967.616 160.165L979.636 159.032L987.674 129.193L973.518 126.697" fill="#EF652A"/>
<path d="M971.198 139.853L965.428 138.836L965.83 134.305L971.985 135.391L972.745 131.082L972.668 131.069L961.819 129.156L961.693 130.323L960.654 142.516L970.425 144.239L971.198 139.853ZM969.204 151.163L969.127 151.149L964.51 148.987L964.813 145.47L962.505 145.063L960.505 144.711L959.836 151.653L968.326 155.689L968.403 155.702L969.204 151.163Z" fill="#EBEBEB"/>
<path d="M971.12 139.839L970.347 144.225L975.733 145.174L974.204 150.696L969.126 151.149L968.326 155.689L977.685 154.8L977.897 154.044L980.919 142.757L981.276 141.63L980.045 141.413L971.12 139.839ZM972.667 131.068L972.192 133.761L971.907 135.377L982.448 137.235L982.688 136.326L983.312 134.135L983.592 132.995L972.667 131.068Z" fill="white"/>
</g>
</g>
<g filter="url(#filter3_d_9620_1053)">
<rect x="1066.94" y="224" width="70" height="70" rx="12.8" transform="rotate(20 1066.94 224)" fill="white"/>
<rect x="1067.09" y="224.32" width="69.5" height="69.5" rx="12.55" transform="rotate(20 1067.09 224.32)" stroke="#F2F2F2" stroke-width="0.5"/>
<g clip-path="url(#clip3_9620_1053)">
<mask id="mask0_9620_1053" style="mask-type:luminance" maskUnits="userSpaceOnUse" x="1072" y="251" width="38" height="43">
<path d="M1103.47 272.901L1089.67 279.339L1096.1 293.144L1084.54 288.935L1078.1 275.13L1091.91 268.692L1103.47 272.901ZM1098.22 251.348L1072.59 263.3L1076.27 271.188L1109.78 255.556L1098.22 251.348Z" fill="white"/>
</mask>
<g mask="url(#mask0_9620_1053)">
<path d="M1078.11 275.131L1081.78 283.017L1103.47 272.901L1091.91 268.692L1078.11 275.131Z" fill="#39CEFD"/>
</g>
<mask id="mask1_9620_1053" style="mask-type:luminance" maskUnits="userSpaceOnUse" x="1072" y="251" width="38" height="43">
<path d="M1103.47 272.901L1089.67 279.339L1096.1 293.144L1084.54 288.935L1078.1 275.13L1091.91 268.692L1103.47 272.901ZM1098.22 251.348L1072.59 263.3L1076.27 271.188L1109.78 255.556L1098.22 251.348Z" fill="white"/>
</mask>
<g mask="url(#mask1_9620_1053)">
<path d="M1098.22 251.348L1109.78 255.556L1076.27 271.188L1072.59 263.3L1098.22 251.348Z" fill="#39CEFD"/>
</g>
<mask id="mask2_9620_1053" style="mask-type:luminance" maskUnits="userSpaceOnUse" x="1072" y="251" width="38" height="43">
<path d="M1103.47 272.901L1089.67 279.339L1096.1 293.144L1084.54 288.935L1078.1 275.13L1091.91 268.692L1103.47 272.901ZM1098.22 251.348L1072.59 263.3L1076.27 271.188L1109.78 255.556L1098.22 251.348Z" fill="white"/>
</mask>
<g mask="url(#mask2_9620_1053)">
<path d="M1081.78 283.018L1084.54 288.932L1096.1 293.14L1089.67 279.34L1081.78 283.018Z" fill="#03569B"/>
</g>
<mask id="mask3_9620_1053" style="mask-type:luminance" maskUnits="userSpaceOnUse" x="1072" y="251" width="38" height="43">
<path d="M1103.47 272.901L1089.67 279.339L1096.1 293.144L1084.54 288.935L1078.1 275.13L1091.91 268.692L1103.47 272.901ZM1098.22 251.348L1072.59 263.3L1076.27 271.188L1109.78 255.556L1098.22 251.348Z" fill="white"/>
</mask>
<g mask="url(#mask3_9620_1053)">
<path d="M1091.44 283.168L1089.67 279.34L1081.78 283.018L1091.44 283.168Z" fill="url(#paint11_linear_9620_1053)"/>
</g>
<mask id="mask4_9620_1053" style="mask-type:luminance" maskUnits="userSpaceOnUse" x="1072" y="251" width="38" height="43">
<path d="M1103.47 272.901L1089.67 279.339L1096.1 293.144L1084.54 288.935L1078.1 275.13L1091.91 268.692L1103.47 272.901ZM1098.22 251.348L1072.59 263.3L1076.27 271.188L1109.78 255.556L1098.22 251.348Z" fill="white"/>
</mask>
<g mask="url(#mask4_9620_1053)">
<path d="M1078.11 275.129L1085.99 271.451L1089.67 279.339L1081.79 283.017L1078.11 275.129Z" fill="#16B9FD"/>
</g>
<path d="M1103.47 272.901L1089.67 279.339L1096.1 293.144L1084.54 288.935L1078.1 275.13L1091.91 268.692L1103.47 272.901ZM1098.22 251.348L1072.59 263.3L1076.27 271.188L1109.78 255.556L1098.22 251.348Z" fill="url(#paint12_radial_9620_1053)"/>
</g>
</g>
<g filter="url(#filter4_d_9620_1053)">
<rect x="61" y="222.117" width="70" height="70" rx="12.8" transform="rotate(-15 61 222.117)" fill="white"/>
<rect x="61.3062" y="222.294" width="69.5" height="69.5" rx="12.55" transform="rotate(-15 61.3062 222.294)" stroke="#F2F2F2" stroke-width="0.5"/>
<path fill-rule="evenodd" clip-rule="evenodd" d="M102.118 226.639C101.84 226.714 101.595 226.843 101.379 226.984C101.98 227.192 102.378 227.564 102.656 228.037C102.684 228.103 102.718 228.148 102.746 228.217C102.774 228.285 102.801 228.33 102.818 228.394C103.095 229.265 102.856 229.447 102.803 230.019C102.694 230.768 102.967 231.468 103.468 231.953C103.521 232.021 103.58 232.085 103.646 232.141C102.588 229.708 104.591 228.761 104.767 227.867C104.611 227.167 103.92 226.859 103.384 226.658C102.885 226.512 102.471 226.534 102.115 226.63L102.118 226.639ZM105.442 226.362C105.462 226.603 105.478 226.534 105.497 226.659L105.544 226.927L105.54 227.186C105.539 227.272 105.533 227.36 105.525 227.448L105.476 227.706C105.458 227.755 105.448 227.8 105.429 227.847L105.394 227.954L105.297 228.194C105.253 228.269 105.222 228.354 105.163 228.426C105.105 228.498 105.077 228.577 105.02 228.646C104.853 228.863 104.645 229.046 104.467 229.256C104.412 229.325 104.354 229.385 104.309 229.461C104.254 229.527 104.205 229.597 104.162 229.672C104.11 229.75 104.076 229.823 104.031 229.911C103.986 229.999 103.956 230.071 103.934 230.151L103.853 230.398L103.805 230.656L103.787 230.907L103.786 231.177C103.788 231.221 103.801 231.272 103.798 231.314C103.795 231.357 103.811 231.397 103.807 231.439L103.866 231.694C103.882 231.753 103.898 231.813 103.924 231.875C103.946 231.955 103.976 232.033 104.021 232.119C104.066 232.205 104.094 232.271 104.136 232.346L104.28 232.565C104.316 232.61 104.357 232.653 104.385 232.684L101.852 232.406L100.615 232.417L99.9453 232.435C99.3128 232.476 98.6827 232.548 98.0574 232.651C98.0346 232.657 98.0253 232.65 98.0048 232.655L96.1944 233.042L94.901 233.443C94.3031 233.647 93.715 233.888 93.1354 234.152L92.7075 234.352L91.8623 234.792L91.445 235.032L91.0671 235.337L90.7792 235.576C90.7589 235.591 90.7406 235.596 90.7352 235.613L90.4938 235.825C90.4666 235.842 90.4497 235.861 90.4333 235.873L90.1661 236.116C90.1057 236.164 90.0477 236.222 89.9947 236.27C89.9712 236.301 89.9367 236.327 89.917 236.345L89.6975 236.566C89.6272 236.634 89.5608 236.706 89.4986 236.781L89.337 236.972L89.161 237.191L89.0291 237.374C89.0087 237.389 88.996 237.415 88.9808 237.431L88.8653 237.602C88.8623 237.627 88.8436 237.64 88.8353 237.654L88.6982 237.873L88.5508 238.116L88.4311 238.344C88.4145 238.373 88.392 238.399 88.3787 238.422C88.3419 238.499 88.3018 238.575 88.2584 238.649C88.2554 238.674 88.2367 238.686 88.2308 238.71L88.0672 239.012L87.6683 239.676C87.5289 239.885 87.3824 240.087 87.2274 240.266L86.7318 240.806C86.5628 240.969 86.3778 241.127 86.1821 241.273C85.9945 241.42 85.7998 241.558 85.5989 241.687C85.2038 241.891 84.8204 242.175 84.4589 242.304C84.3791 242.326 84.2963 242.372 84.216 242.401L83.9811 242.528L83.7662 242.684C83.6932 242.738 83.6231 242.796 83.5562 242.858C83.5012 242.927 83.4302 242.99 83.374 243.054C83.3179 243.118 83.2667 243.201 83.2211 243.277C83.1754 243.353 83.1161 243.433 83.0717 243.513L82.9564 243.758C82.9277 243.852 82.8874 243.939 82.8673 244.027C82.8347 244.115 82.809 244.205 82.7901 244.296L82.7507 244.587L82.7294 244.872L82.7437 245.126C82.746 245.253 82.7785 245.375 82.7825 245.435C82.7864 245.496 82.8181 245.568 82.8371 245.639C82.8469 245.683 82.8617 245.726 82.8812 245.767C82.9088 245.834 82.939 245.892 82.9732 245.947L83.0908 246.112C83.1389 246.172 83.1942 246.224 83.2512 246.272L83.4303 246.421L83.6421 246.536C83.7163 246.579 83.794 246.616 83.8744 246.646C84.1703 246.792 84.2458 246.846 84.6012 246.922C84.6594 246.939 84.7151 246.946 84.7824 246.96C84.82 246.982 84.8224 246.991 84.8394 247.008C84.87 247.086 84.912 247.161 84.954 247.236C84.9952 247.313 85.0435 247.386 85.0983 247.455L85.2273 247.617C85.2425 247.637 85.2611 247.652 85.2704 247.659L85.448 247.847L85.655 248.018L85.8747 248.163C85.95 248.207 86.0228 248.241 86.1094 248.282L86.3484 248.38C86.4303 248.412 86.5098 248.435 86.6023 248.452C86.6876 248.475 86.7744 248.491 86.8622 248.5C86.9294 248.514 87.0057 248.515 87.079 248.515C87.1523 248.515 87.2201 248.522 87.2613 248.521C87.3765 249.069 87.5027 249.586 87.6327 249.742C87.7773 249.917 88.0513 249.188 88.3019 248.372C88.4281 249.08 88.6043 249.902 88.7685 250.113C88.9328 250.325 89.3331 249.392 89.6223 248.392C96.2524 244.854 104.023 248.035 106.558 254.787C106.138 253.74 104.652 253.493 104.083 253.805C103.985 254.627 103.729 255.717 103.068 256.525C102.959 255.842 102.747 255.172 102.431 254.547C102.455 255.529 102.264 256.505 101.871 257.404C100.943 257.726 99.8739 257.521 99.1867 256.964C99.1377 256.945 99.112 256.885 99.0719 256.854L98.9356 256.665C98.8875 256.604 98.8486 256.541 98.8198 256.47C98.791 256.399 98.7739 256.335 98.7517 256.253L98.7112 256.101C98.7019 256.03 98.704 255.956 98.7049 255.877L98.7169 255.648C98.7395 255.568 98.7484 255.492 98.779 255.405C98.825 254.902 98.7144 254.489 98.3474 254.342C98.2771 254.317 98.2104 254.305 98.1311 254.292C98.0876 254.294 98.0319 254.287 97.99 254.286L97.9022 254.277L97.6789 254.283C97.6054 254.282 97.5321 254.29 97.4611 254.31C97.3855 254.317 97.3105 254.33 97.2366 254.348C97.1864 254.361 97.1387 254.384 97.0885 254.397C97.0143 254.416 96.9433 254.446 96.8776 254.486L96.6782 254.581L96.4868 254.706L96.3129 254.851L96.1506 255.002C94.2325 257.149 96.5785 260.339 98.4389 260.951C97.8708 261.221 97.2945 261.516 97.163 261.691C97.6485 261.86 98.1557 261.965 98.6759 262.027L100.413 262.053C101.29 262.014 102.143 261.847 102.978 261.569C105.09 260.833 106.888 259.395 108.073 257.491C109.258 255.588 109.759 253.334 109.494 251.103L109.623 251.348L109.865 251.885L109.979 252.144L110.081 252.436L110.192 252.76L110.235 252.92C110.249 252.971 110.274 253.028 110.287 253.078C110.301 253.129 110.31 253.2 110.327 253.264L110.364 253.401C110.383 253.47 110.39 253.534 110.409 253.603C110.419 253.642 110.43 253.683 110.434 253.736L110.484 253.959C110.483 253.991 110.491 254.021 110.5 254.053L110.531 254.29C110.539 254.32 110.547 254.349 110.547 254.384L110.586 254.685L110.592 254.708L110.608 255.004L110.628 255.317L110.632 255.65L110.636 255.983L110.621 256.331L110.558 256.972L110.518 257.295L110.456 257.611C110.455 257.643 110.446 257.667 110.445 257.687C110.136 259.209 109.488 260.621 108.531 261.84C108.465 261.912 108.401 261.993 108.337 262.074C108.32 262.103 108.295 262.117 108.282 262.142L108.103 262.352L108.149 262.404L108.158 262.401L108.562 262.229L108.571 262.227L109.31 261.882C109.376 261.854 109.452 261.812 109.515 261.773L109.644 261.706L109.843 261.611L110.012 261.512C110.945 261.004 111.82 260.413 112.646 259.774C111.645 262.376 109.988 264.696 107.813 266.514C108.939 266.127 110.035 265.629 111.053 265.012C114.752 262.744 117.407 259.123 118.452 254.921C118.663 257.351 118.337 259.796 117.496 262.083C118.291 261.182 118.98 260.204 119.565 259.146C121.17 256.206 121.838 252.841 121.481 249.504C122.247 250.993 122.781 252.604 123.065 254.257C127.562 242.236 118.156 233.543 114.653 231.529C114.638 231.509 114.623 231.506 114.617 231.485C114.626 231.61 114.652 231.734 114.675 231.855C114.706 232.092 114.736 232.323 114.754 232.553C114.772 232.784 114.763 233.023 114.763 233.263C114.764 233.504 114.728 233.734 114.696 233.969C114.663 234.204 114.617 234.432 114.563 234.66C114.506 234.886 114.437 235.108 114.358 235.327C114.279 235.552 114.188 235.77 114.092 235.977C113.99 236.192 113.878 236.401 113.757 236.605C113.681 236.724 113.613 236.825 113.535 236.935L113.36 237.195C113.22 237.385 113.069 237.566 112.907 237.737C112.749 237.911 112.583 238.078 112.41 238.236C112.227 238.393 112.041 238.539 111.855 238.684C111.664 238.822 111.467 238.95 111.264 239.069C111.061 239.187 110.844 239.299 110.636 239.399C110.428 239.499 110.196 239.581 109.98 239.661C109.823 239.712 109.667 239.769 109.53 239.806C109.302 239.867 109.068 239.905 108.842 239.946C108.616 239.987 108.372 240.018 108.135 240.027C107.898 240.047 107.659 240.05 107.421 240.037L107.412 240.039C107.625 239.958 107.839 239.881 108.052 239.782C108.265 239.683 108.477 239.57 108.68 239.451C108.883 239.333 109.083 239.203 109.271 239.067C109.459 238.931 109.651 238.769 109.826 238.619C110.003 238.464 110.173 238.3 110.335 238.129C110.489 237.947 110.643 237.766 110.786 237.578C110.927 237.39 111.057 237.194 111.174 236.99C111.302 236.794 111.407 236.584 111.512 236.374C111.617 236.164 111.706 235.937 111.787 235.721C111.802 235.685 111.81 235.641 111.819 235.604L111.986 235.068C112.042 234.84 112.089 234.611 112.119 234.377C112.149 234.143 112.175 233.91 112.186 233.671C112.198 233.432 112.189 233.209 112.181 232.975C112.172 232.742 112.14 232.503 112.101 232.277C112.063 232.052 112.017 231.808 111.958 231.586C111.915 231.426 111.863 231.268 111.812 231.134C111.728 230.911 111.641 230.696 111.552 230.484C111.452 230.269 111.342 230.058 111.222 229.853C111.097 229.661 110.97 229.459 110.831 229.27C110.692 229.081 110.536 228.897 110.387 228.726C110.238 228.555 110.061 228.384 109.886 228.226C109.712 228.069 109.527 227.925 109.34 227.783L108.747 227.395C108.64 227.332 108.531 227.272 108.42 227.215C107.88 226.985 107.329 226.781 106.77 226.603C106.691 226.583 106.621 226.569 106.544 226.556C106.16 226.433 105.82 226.406 105.485 226.388L105.442 226.362Z" fill="#EA2845"/>
</g>
<g filter="url(#filter5_d_9620_1053)">
<rect x="1114.12" y="398" width="70" height="70" rx="12.8" transform="rotate(15 1114.12 398)" fill="white"/>
<rect x="1114.29" y="398.306" width="69.5" height="69.5" rx="12.55" transform="rotate(15 1114.29 398.306)" stroke="#F2F2F2" stroke-width="0.5"/>
<path d="M1133.11 424.161C1133.83 421.5 1134.94 420.249 1139.16 420.639C1142.02 420.903 1145.54 421.784 1148.67 423.188C1151.14 424.297 1152.81 426.761 1152.14 429.259L1149.79 438.035C1149.1 440.609 1146.42 442.152 1143.78 441.443L1134.26 438.894C1131.04 438.029 1127.59 439.991 1126.78 443.033L1125.65 447.244L1122.38 446.367C1119.61 445.626 1118.53 443.244 1118.58 440.334C1118.65 436.423 1119.27 434.249 1121.09 430.972C1122.67 428.112 1125.52 427.145 1128.29 427.886L1141.37 431.392L1141.69 430.221L1132.17 427.671L1133.11 424.16L1133.11 424.161Z" fill="url(#paint13_linear_9620_1053)"/>
<path d="M1144.62 457.344C1143.9 460.004 1141.18 460.719 1138.6 460.749C1134.73 460.796 1131.87 459.865 1129.09 458.2C1126.77 456.809 1124.92 454.744 1125.59 452.246L1127.94 443.47C1128.62 440.944 1131.35 439.364 1133.95 440.062L1143.46 442.611C1146.63 443.46 1150.13 441.528 1150.98 438.354L1152.08 434.261L1155.64 435.217C1158.41 435.959 1159.18 438.32 1159.15 441.171C1159.11 445.13 1158.41 447.911 1156.64 450.532C1154.93 453.079 1153.39 454.678 1150.63 453.937L1136.36 450.113L1136.04 451.285L1145.56 453.834L1144.62 457.344Z" fill="url(#paint14_linear_9620_1053)"/>
<path d="M1135.65 424.216C1135.91 423.244 1136.92 422.672 1137.9 422.936C1138.89 423.2 1139.48 424.2 1139.22 425.172C1138.96 426.14 1137.95 426.711 1136.96 426.448C1135.98 426.183 1135.39 425.184 1135.65 424.216ZM1138.51 456.333C1138.77 455.365 1139.78 454.794 1140.77 455.058C1141.75 455.322 1142.34 456.321 1142.08 457.289C1141.82 458.261 1140.81 458.833 1139.83 458.569C1138.84 458.305 1138.25 457.305 1138.51 456.333Z" fill="white"/>
</g>
<g filter="url(#filter6_d_9620_1053)">
<rect x="474" y="53.4429" width="70" height="70" rx="12.8" transform="rotate(-2 474 53.4429)" fill="white"/>
<rect x="474.259" y="53.684" width="69.5" height="69.5" rx="12.55" transform="rotate(-2 474.259 53.684)" stroke="#F2F2F2" stroke-width="0.5"/>
<g clip-path="url(#clip4_9620_1053)">
<path d="M527.137 66.5962L525.182 102.682L510.887 107.188L496.353 103.695L491.889 67.8271L527.137 66.5962Z" fill="#264DE4"/>
<path d="M510.802 104.128L522.353 100.487L524.023 69.6502L509.615 70.1533L510.802 104.128Z" fill="#2965F1"/>
<path d="M510.082 83.4978L499.812 83.8564L500.361 88.2553L510.236 87.9105L510.082 83.4978Z" fill="#EBEBEB"/>
<path d="M509.77 74.5662L509.755 74.5668L498.705 74.9526L499.26 79.3514L509.924 78.979L509.77 74.5662Z" fill="#EBEBEB"/>
<path d="M500.635 90.4551L501.495 97.3621L510.622 99.5558L510.642 99.5495L510.482 94.9584L510.462 94.9642L505.502 93.8088L505.064 90.3004L502.676 90.3838L500.635 90.4551Z" fill="#EBEBEB"/>
<path d="M515.655 87.7213L515.342 93.4622L510.467 94.9625L510.627 99.5534L519.586 96.7303L519.627 95.9824L520.258 84.3289L520.324 83.1402L520.809 74.1809L509.755 74.5669L509.909 78.9797L516.127 78.7625L515.883 83.2953L510.067 83.4984L510.221 87.9111L515.655 87.7213Z" fill="white"/>
</g>
</g>
<g filter="url(#filter7_d_9620_1053)">
<rect x="717.443" y="68" width="70" height="70" rx="12.8" transform="rotate(2 717.443 68)" fill="white"/>
<rect x="717.684" y="68.2586" width="69.5" height="69.5" rx="12.55" transform="rotate(2 717.684 68.2586)" stroke="#F2F2F2" stroke-width="0.5"/>
<g clip-path="url(#clip5_9620_1053)">
<path d="M751.077 107.737C753.049 107.806 754.703 106.263 754.772 104.292C754.84 102.32 753.298 100.666 751.327 100.597C749.355 100.528 747.701 102.071 747.632 104.042C747.563 106.014 749.106 107.668 751.077 107.737Z" fill="#00D8FF"/>
<path fill-rule="evenodd" clip-rule="evenodd" d="M751.455 96.9089C756.248 97.0763 760.676 97.9195 763.993 99.1925C767.989 100.726 770.402 102.924 770.336 104.835C770.266 106.827 767.552 108.977 763.158 110.265C759.836 111.238 755.495 111.655 750.946 111.496C746.281 111.333 741.883 110.646 738.601 109.395C734.45 107.812 731.999 105.452 732.067 103.499C732.133 101.603 734.581 99.5914 738.617 98.3403C742.028 97.2832 746.615 96.7399 751.454 96.9089L751.455 96.9089Z" stroke="#00D8FF" stroke-width="2"/>
<path fill-rule="evenodd" clip-rule="evenodd" d="M745.01 100.338C747.549 96.2698 750.492 92.8548 753.252 90.6175C756.577 87.922 759.686 86.9294 761.308 87.9419C762.999 88.9972 763.506 92.4225 762.426 96.8718C761.61 100.236 759.802 104.205 757.392 108.066C754.92 112.026 752.128 115.493 749.405 117.71C745.96 120.515 742.691 121.46 741.033 120.425C739.424 119.421 738.904 116.295 739.837 112.173C740.625 108.691 742.446 104.446 745.009 100.338L745.01 100.338Z" stroke="#00D8FF" stroke-width="2"/>
<path fill-rule="evenodd" clip-rule="evenodd" d="M744.761 107.636C742.505 103.405 741.017 99.1493 740.456 95.6411C739.781 91.4142 740.474 88.2246 742.161 87.3248C743.92 86.3871 747.141 87.6586 750.456 90.8162C752.963 93.2035 755.499 96.7514 757.641 100.768C759.837 104.887 761.446 109.038 762.007 112.504C762.717 116.89 761.903 120.193 760.178 121.113C758.504 122.006 755.537 120.895 752.432 118.029C749.808 115.607 747.04 111.909 744.761 107.636L744.761 107.636Z" stroke="#00D8FF" stroke-width="2"/>
</g>
</g>
<defs>
<filter id="filter0_d_9620_1053" x="-3.24" y="382.88" width="110.2" height="110.2" filterUnits="userSpaceOnUse" color-interpolation-filters="sRGB">
<feFlood flood-opacity="0" result="BackgroundImageFix"/>
<feColorMatrix in="SourceAlpha" type="matrix" values="0 0 0 0 0 0 0 0 0 0 0 0 0 0 0 0 0 0 127 0" result="hardAlpha"/>
<feOffset dy="5.12"/>
<feGaussianBlur stdDeviation="5.12"/>
<feComposite in2="hardAlpha" operator="out"/>
<feColorMatrix type="matrix" values="0 0 0 0 0 0 0 0 0 0 0 0 0 0 0 0 0 0 0.15 0"/>
<feBlend mode="normal" in2="BackgroundImageFix" result="effect1_dropShadow_9620_1053"/>
<feBlend mode="normal" in="SourceGraphic" in2="effect1_dropShadow_9620_1053" result="shape"/>
</filter>
<filter id="filter1_d_9620_1053" x="220.76" y="89.88" width="106.212" height="106.212" filterUnits="userSpaceOnUse" color-interpolation-filters="sRGB">
<feFlood flood-opacity="0" result="BackgroundImageFix"/>
<feColorMatrix in="SourceAlpha" type="matrix" values="0 0 0 0 0 0 0 0 0 0 0 0 0 0 0 0 0 0 127 0" result="hardAlpha"/>
<feOffset dy="5.12"/>
<feGaussianBlur stdDeviation="5.12"/>
<feComposite in2="hardAlpha" operator="out"/>
<feColorMatrix type="matrix" values="0 0 0 0 0 0 0 0 0 0 0 0 0 0 0 0 0 0 0.15 0"/>
<feBlend mode="normal" in2="BackgroundImageFix" result="effect1_dropShadow_9620_1053"/>
<feBlend mode="normal" in="SourceGraphic" in2="effect1_dropShadow_9620_1053" result="shape"/>
</filter>
<filter id="filter2_d_9620_1053" x="919.76" y="97.88" width="101.572" height="101.572" filterUnits="userSpaceOnUse" color-interpolation-filters="sRGB">
<feFlood flood-opacity="0" result="BackgroundImageFix"/>
<feColorMatrix in="SourceAlpha" type="matrix" values="0 0 0 0 0 0 0 0 0 0 0 0 0 0 0 0 0 0 127 0" result="hardAlpha"/>
<feOffset dy="5.12"/>
<feGaussianBlur stdDeviation="5.12"/>
<feComposite in2="hardAlpha" operator="out"/>
<feColorMatrix type="matrix" values="0 0 0 0 0 0 0 0 0 0 0 0 0 0 0 0 0 0 0.15 0"/>
<feBlend mode="normal" in2="BackgroundImageFix" result="effect1_dropShadow_9620_1053"/>
<feBlend mode="normal" in="SourceGraphic" in2="effect1_dropShadow_9620_1053" result="shape"/>
</filter>
<filter id="filter3_d_9620_1053" x="1032.76" y="218.88" width="110.2" height="110.2" filterUnits="userSpaceOnUse" color-interpolation-filters="sRGB">
<feFlood flood-opacity="0" result="BackgroundImageFix"/>
<feColorMatrix in="SourceAlpha" type="matrix" values="0 0 0 0 0 0 0 0 0 0 0 0 0 0 0 0 0 0 127 0" result="hardAlpha"/>
<feOffset dy="5.12"/>
<feGaussianBlur stdDeviation="5.12"/>
<feComposite in2="hardAlpha" operator="out"/>
<feColorMatrix type="matrix" values="0 0 0 0 0 0 0 0 0 0 0 0 0 0 0 0 0 0 0.15 0"/>
<feBlend mode="normal" in2="BackgroundImageFix" result="effect1_dropShadow_9620_1053"/>
<feBlend mode="normal" in="SourceGraphic" in2="effect1_dropShadow_9620_1053" result="shape"/>
</filter>
<filter id="filter4_d_9620_1053" x="50.76" y="198.88" width="106.212" height="106.212" filterUnits="userSpaceOnUse" color-interpolation-filters="sRGB">
<feFlood flood-opacity="0" result="BackgroundImageFix"/>
<feColorMatrix in="SourceAlpha" type="matrix" values="0 0 0 0 0 0 0 0 0 0 0 0 0 0 0 0 0 0 127 0" result="hardAlpha"/>
<feOffset dy="5.12"/>
<feGaussianBlur stdDeviation="5.12"/>
<feComposite in2="hardAlpha" operator="out"/>
<feColorMatrix type="matrix" values="0 0 0 0 0 0 0 0 0 0 0 0 0 0 0 0 0 0 0.15 0"/>
<feBlend mode="normal" in2="BackgroundImageFix" result="effect1_dropShadow_9620_1053"/>
<feBlend mode="normal" in="SourceGraphic" in2="effect1_dropShadow_9620_1053" result="shape"/>
</filter>
<filter id="filter5_d_9620_1053" x="1085.76" y="392.88" width="106.212" height="106.212" filterUnits="userSpaceOnUse" color-interpolation-filters="sRGB">
<feFlood flood-opacity="0" result="BackgroundImageFix"/>
<feColorMatrix in="SourceAlpha" type="matrix" values="0 0 0 0 0 0 0 0 0 0 0 0 0 0 0 0 0 0 127 0" result="hardAlpha"/>
<feOffset dy="5.12"/>
<feGaussianBlur stdDeviation="5.12"/>
<feComposite in2="hardAlpha" operator="out"/>
<feColorMatrix type="matrix" values="0 0 0 0 0 0 0 0 0 0 0 0 0 0 0 0 0 0 0.15 0"/>
<feBlend mode="normal" in2="BackgroundImageFix" result="effect1_dropShadow_9620_1053"/>
<feBlend mode="normal" in="SourceGraphic" in2="effect1_dropShadow_9620_1053" result="shape"/>
</filter>
<filter id="filter6_d_9620_1053" x="463.76" y="45.88" width="92.8804" height="92.8804" filterUnits="userSpaceOnUse" color-interpolation-filters="sRGB">
<feFlood flood-opacity="0" result="BackgroundImageFix"/>
<feColorMatrix in="SourceAlpha" type="matrix" values="0 0 0 0 0 0 0 0 0 0 0 0 0 0 0 0 0 0 127 0" result="hardAlpha"/>
<feOffset dy="5.12"/>
<feGaussianBlur stdDeviation="5.12"/>
<feComposite in2="hardAlpha" operator="out"/>
<feColorMatrix type="matrix" values="0 0 0 0 0 0 0 0 0 0 0 0 0 0 0 0 0 0 0.15 0"/>
<feBlend mode="normal" in2="BackgroundImageFix" result="effect1_dropShadow_9620_1053"/>
<feBlend mode="normal" in="SourceGraphic" in2="effect1_dropShadow_9620_1053" result="shape"/>
</filter>
<filter id="filter7_d_9620_1053" x="704.76" y="62.88" width="92.8804" height="92.8804" filterUnits="userSpaceOnUse" color-interpolation-filters="sRGB">
<feFlood flood-opacity="0" result="BackgroundImageFix"/>
<feColorMatrix in="SourceAlpha" type="matrix" values="0 0 0 0 0 0 0 0 0 0 0 0 0 0 0 0 0 0 127 0" result="hardAlpha"/>
<feOffset dy="5.12"/>
<feGaussianBlur stdDeviation="5.12"/>
<feComposite in2="hardAlpha" operator="out"/>
<feColorMatrix type="matrix" values="0 0 0 0 0 0 0 0 0 0 0 0 0 0 0 0 0 0 0.15 0"/>
<feBlend mode="normal" in2="BackgroundImageFix" result="effect1_dropShadow_9620_1053"/>
<feBlend mode="normal" in="SourceGraphic" in2="effect1_dropShadow_9620_1053" result="shape"/>
</filter>
<linearGradient id="paint0_linear_9620_1053" x1="274.333" y1="0" x2="274.333" y2="653" gradientUnits="userSpaceOnUse">
<stop stop-color="white"/>
<stop offset="0.5" stop-color="#CCCCCC"/>
<stop offset="1" stop-color="white"/>
</linearGradient>
<linearGradient id="paint1_linear_9620_1053" x1="444.166" y1="0" x2="444.166" y2="653" gradientUnits="userSpaceOnUse">
<stop stop-color="white"/>
<stop offset="0.5" stop-color="#CCCCCC"/>
<stop offset="1" stop-color="white"/>
</linearGradient>
<linearGradient id="paint2_linear_9620_1053" x1="614" y1="0" x2="614" y2="653" gradientUnits="userSpaceOnUse">
<stop stop-color="white"/>
<stop offset="0.5" stop-color="#CCCCCC"/>
<stop offset="1" stop-color="white"/>
</linearGradient>
<linearGradient id="paint3_linear_9620_1053" x1="783.833" y1="0" x2="783.833" y2="653" gradientUnits="userSpaceOnUse">
<stop stop-color="white"/>
<stop offset="0.5" stop-color="#CCCCCC"/>
<stop offset="1" stop-color="white"/>
</linearGradient>
<linearGradient id="paint4_linear_9620_1053" x1="953.666" y1="0" x2="953.666" y2="653" gradientUnits="userSpaceOnUse">
<stop stop-color="white"/>
<stop offset="0.5" stop-color="#CCCCCC"/>
<stop offset="1" stop-color="white"/>
</linearGradient>
<linearGradient id="paint5_linear_9620_1053" x1="613.5" y1="93.2856" x2="613.5" y2="94.2856" gradientUnits="userSpaceOnUse">
<stop stop-color="white"/>
<stop offset="0.5" stop-color="#CCCCCC"/>
<stop offset="1" stop-color="white"/>
</linearGradient>
<linearGradient id="paint6_linear_9620_1053" x1="613.5" y1="186.571" x2="613.5" y2="187.571" gradientUnits="userSpaceOnUse">
<stop stop-color="white"/>
<stop offset="0.5" stop-color="#CCCCCC"/>
<stop offset="1" stop-color="white"/>
</linearGradient>
<linearGradient id="paint7_linear_9620_1053" x1="613.5" y1="279.857" x2="613.5" y2="280.857" gradientUnits="userSpaceOnUse">
<stop stop-color="white"/>
<stop offset="0.5" stop-color="#CCCCCC"/>
<stop offset="1" stop-color="white"/>
</linearGradient>
<linearGradient id="paint8_linear_9620_1053" x1="613.5" y1="373.143" x2="613.5" y2="374.143" gradientUnits="userSpaceOnUse">
<stop stop-color="white"/>
<stop offset="0.5" stop-color="#CCCCCC"/>
<stop offset="1" stop-color="white"/>
</linearGradient>
<linearGradient id="paint9_linear_9620_1053" x1="613.5" y1="466.429" x2="613.5" y2="467.429" gradientUnits="userSpaceOnUse">
<stop stop-color="white"/>
<stop offset="0.5" stop-color="#CCCCCC"/>
<stop offset="1" stop-color="white"/>
</linearGradient>
<linearGradient id="paint10_linear_9620_1053" x1="613.5" y1="559.714" x2="613.5" y2="560.714" gradientUnits="userSpaceOnUse">
<stop stop-color="white"/>
<stop offset="0.5" stop-color="#CCCCCC"/>
<stop offset="1" stop-color="white"/>
</linearGradient>
<linearGradient id="paint11_linear_9620_1053" x1="1083.06" y1="284.748" x2="1088.94" y2="282.008" gradientUnits="userSpaceOnUse">
<stop stop-color="#1A237E" stop-opacity="0.4"/>
<stop offset="1" stop-color="#1A237E" stop-opacity="0"/>
</linearGradient>
<radialGradient id="paint12_radial_9620_1053" cx="0" cy="0" r="1" gradientUnits="userSpaceOnUse" gradientTransform="translate(1079.35 247.381) rotate(20) scale(48.9347 48.9347)">
<stop stop-color="white" stop-opacity="0.1"/>
<stop offset="1" stop-color="white" stop-opacity="0"/>
</radialGradient>
<linearGradient id="paint13_linear_9620_1053" x1="1150.55" y1="435.197" x2="1121.4" y2="427.131" gradientUnits="userSpaceOnUse">
<stop stop-color="#366A96"/>
<stop offset="1" stop-color="#3679B0"/>
</linearGradient>
<linearGradient id="paint14_linear_9620_1053" x1="1157.27" y1="451.079" x2="1099.45" y2="435.584" gradientUnits="userSpaceOnUse">
<stop stop-color="#FFC836"/>
<stop offset="1" stop-color="#FFE873"/>
</linearGradient>
<clipPath id="clip0_9620_1053">
<rect width="40" height="40" fill="white" transform="translate(26.2256 420.906) rotate(-20)"/>
</clipPath>
<clipPath id="clip1_9620_1053">
<rect width="40" height="40" fill="white" transform="translate(249.371 123.724) rotate(-15)"/>
</clipPath>
<clipPath id="clip2_9620_1053">
<rect width="40" height="40" fill="white" transform="translate(954.323 120.377) rotate(10)"/>
</clipPath>
<clipPath id="clip3_9620_1053">
<rect width="40" height="40" fill="white" transform="translate(1075.91 243.226) rotate(20)"/>
</clipPath>
<clipPath id="clip4_9620_1053">
<rect width="40" height="40" fill="white" transform="translate(489.515 67.9102) rotate(-2)"/>
</clipPath>
<clipPath id="clip5_9620_1053">
<rect width="40" height="40" fill="white" transform="translate(731.911 83.5142) rotate(2)"/>
</clipPath>
</defs>
</svg>
