<svg width="684" height="388" viewBox="0 0 684 388" fill="none" xmlns="http://www.w3.org/2000/svg">
<path d="M114 15V388" stroke="url(#paint0_linear_9620_1053)"/>
<path d="M228 15V388" stroke="url(#paint1_linear_9620_1053)"/>
<path d="M342 15V388" stroke="url(#paint2_linear_9620_1053)"/>
<path d="M456 15V388" stroke="url(#paint3_linear_9620_1053)"/>
<path d="M570 15V388" stroke="url(#paint4_linear_9620_1053)"/>
<path d="M0 68.2856H684" stroke="url(#paint5_linear_9620_1053)"/>
<path d="M0 121.571H684" stroke="url(#paint6_linear_9620_1053)"/>
<path d="M0 174.857H684" stroke="url(#paint7_linear_9620_1053)"/>
<path d="M0 228.143H684" stroke="url(#paint8_linear_9620_1053)"/>
<path d="M0 281.429H684" stroke="url(#paint9_linear_9620_1053)"/>
<path d="M0 334.714H684" stroke="url(#paint10_linear_9620_1053)"/>
<path d="M13.3809 299.325L43.451 288.381L54.3957 318.451L24.3255 329.395L13.3809 299.325Z" fill="#F7DF1E"/>
<path d="M30.4331 321.576L32.2274 319.346C32.9578 319.971 33.604 320.49 34.5727 320.138C35.5013 319.8 35.9545 319.224 35.4403 317.811L31.9432 308.203L34.769 307.174L38.2806 316.822C39.3459 319.749 38.1152 321.706 35.6121 322.617C33.3516 323.44 31.6132 322.746 30.4329 321.576" fill="black"/>
<path d="M40.3162 317.637L42.1322 315.467C43.0979 316.236 44.1496 316.676 45.5423 316.169C46.7131 315.743 47.2467 314.885 46.9529 314.078C46.6002 313.109 45.7083 313.045 44.2108 312.95L43.3943 312.904C41.0396 312.779 39.2905 312.181 38.4529 309.88C37.6815 307.76 38.7085 305.558 41.2317 304.639C43.0282 303.986 44.5478 304.141 46.0713 305.438L44.3854 307.652C43.585 306.96 42.9355 306.808 42.1281 307.102C41.3005 307.403 40.9667 308.119 41.2164 308.805C41.525 309.653 42.1748 309.805 43.5768 309.889L44.3934 309.935C47.1701 310.09 48.9045 310.648 49.7641 313.009C50.6898 315.553 49.1984 317.673 46.5139 318.65C43.8898 319.605 41.7387 318.97 40.3162 317.637Z" fill="black"/>
<g filter="url(#filter0_d_9620_1053)">
<path d="M618.261 284.849C619.114 280.514 623.17 278.227 627.321 279.742L665.048 293.504C669.199 295.018 671.872 299.76 671.019 304.095L663.299 343.32C662.446 347.656 658.389 349.942 654.239 348.428L616.511 334.666C612.361 333.151 609.687 328.41 610.541 324.075L618.261 284.849Z" fill="white"/>
<path d="M627.273 279.987L665 293.75C669.021 295.216 671.611 299.81 670.784 304.01L663.064 343.235C662.238 347.434 658.308 349.65 654.287 348.183L616.56 334.42C612.539 332.953 609.949 328.36 610.776 324.16L618.496 284.935C619.322 280.735 623.252 278.52 627.273 279.987Z" stroke="#F2F2F2" stroke-width="0.5"/>
<path d="M635.86 299.979C636.286 297.817 637.085 296.848 640.329 297.432C642.532 297.827 645.27 298.775 647.73 300.131C649.674 301.203 651.065 303.349 650.665 305.379L649.262 312.511C648.85 314.603 646.87 315.717 644.811 314.966L637.41 312.266C634.898 311.349 632.35 312.764 631.864 315.236L631.19 318.658L628.646 317.73C626.493 316.944 625.552 314.902 625.462 312.493C625.338 309.254 625.717 307.49 626.959 304.885C628.038 302.611 630.181 301.985 632.334 302.77L642.515 306.484L642.703 305.532L635.299 302.831L635.86 299.978L635.86 299.979Z" fill="url(#paint11_linear_9620_1053)"/>
<path d="M646.173 328.202C645.748 330.364 643.695 330.789 641.723 330.654C638.756 330.454 636.529 329.507 634.322 327.955C632.478 326.658 630.969 324.832 631.368 322.802L632.772 315.67C633.176 313.618 635.196 312.476 637.223 313.215L644.624 315.915C647.089 316.815 649.681 315.428 650.188 312.849L650.843 309.523L653.618 310.535C655.774 311.322 656.467 313.327 656.572 315.688C656.72 318.968 656.31 321.232 655.074 323.296C653.877 325.302 652.777 326.533 650.624 325.748L639.521 321.698L639.334 322.65L646.735 325.35L646.173 328.202Z" fill="url(#paint12_linear_9620_1053)"/>
<path d="M637.805 300.181C637.96 299.391 638.706 298.979 639.474 299.259C640.239 299.538 640.736 300.404 640.58 301.193C640.425 301.98 639.677 302.392 638.912 302.112C638.144 301.832 637.65 300.968 637.805 300.181ZM641.454 326.988C641.609 326.201 642.358 325.79 643.123 326.069C643.89 326.349 644.385 327.214 644.23 328C644.075 328.79 643.329 329.202 642.561 328.922C641.796 328.643 641.299 327.778 641.454 326.988Z" fill="white"/>
</g>
<g filter="url(#filter1_d_9620_1053)">
<path d="M82.0706 64.2215C80.927 59.9538 83.4597 55.5671 87.7274 54.4236L126.364 44.0708C130.632 42.9273 135.019 45.46 136.162 49.7277L146.515 88.3647C147.659 92.6324 145.126 97.0191 140.858 98.1627L102.221 108.515C97.9535 109.659 93.5668 107.126 92.4233 102.859L82.0706 64.2215Z" fill="white"/>
<path d="M87.7921 54.6651L126.429 44.3123C130.564 43.2045 134.813 45.658 135.921 49.7924L146.274 88.4294C147.381 92.5638 144.928 96.8134 140.794 97.9212L102.157 108.274C98.0222 109.382 93.7726 106.928 92.6648 102.794L82.312 64.1568C81.2042 60.0225 83.6577 55.7729 87.7921 54.6651Z" stroke="#F2F2F2" stroke-width="0.5"/>
<g clip-path="url(#clip0_9620_1053)">
<path d="M113.273 92.912C116.082 92.1592 117.751 89.2683 116.998 86.4591L115.634 81.3699L110.545 82.7335C107.736 83.4863 106.067 86.3771 106.82 89.1864C107.572 91.9956 110.463 93.6647 113.273 92.912Z" fill="#0ACF83"/>
<path d="M104.092 79.0077C103.339 76.1984 105.008 73.3075 107.818 72.5548L112.907 71.1912L115.634 81.3696L110.545 82.7332C107.736 83.486 104.845 81.8169 104.092 79.0077Z" fill="#A259FF"/>
<path d="M101.365 68.8295C100.612 66.0202 102.281 63.1293 105.09 62.3766L110.179 61.0129L112.907 71.1914L107.818 72.555C105.008 73.3078 102.117 71.6387 101.365 68.8295Z" fill="#F24E1E"/>
<path d="M110.18 61.0127L115.269 59.649C118.078 58.8963 120.969 60.5654 121.722 63.3746C122.475 66.1839 120.805 69.0747 117.996 69.8275L112.907 71.1911L110.18 61.0127Z" fill="#FF7262"/>
<path d="M124.449 73.5533C125.202 76.3626 123.533 79.2535 120.724 80.0062C117.915 80.7589 115.024 79.0899 114.271 76.2806C113.518 73.4714 115.187 70.5805 117.996 69.8278C120.806 69.075 123.697 70.7441 124.449 73.5533Z" fill="#1ABCFE"/>
</g>
</g>
<g filter="url(#filter2_d_9620_1053)">
<path d="M226.279 18.9507C226.125 14.5351 229.58 10.8306 233.995 10.6764L273.971 9.28039C278.386 9.12619 282.091 12.5807 282.245 16.9963L283.641 56.972C283.795 61.3875 280.341 65.0921 275.925 65.2463L235.949 66.6423C231.534 66.7965 227.829 63.3419 227.675 58.9263L226.279 18.9507Z" fill="white"/>
<path d="M234.004 10.9262L273.979 9.53024C278.257 9.38086 281.846 12.7274 281.995 17.005L283.391 56.9807C283.541 61.2583 280.194 64.8471 275.916 64.9964L235.941 66.3924C231.663 66.5418 228.074 63.1952 227.925 58.9176L226.529 18.942C226.38 14.6644 229.726 11.0756 234.004 10.9262Z" stroke="#F2F2F2" stroke-width="0.5"/>
<g clip-path="url(#clip1_9620_1053)">
<path d="M268.508 21.4782L266.944 50.347L255.509 53.9516L243.881 51.1569L240.31 22.4629L268.508 21.4782Z" fill="#264DE4"/>
<path d="M255.44 51.5042L264.681 48.5914L266.018 23.9217L254.491 24.3242L255.44 51.5042Z" fill="#2965F1"/>
<path d="M254.864 34.9992L246.647 35.2861L247.087 38.8052L254.987 38.5294L254.864 34.9992Z" fill="#EBEBEB"/>
<path d="M254.615 27.8545L254.603 27.8549L245.763 28.1636L246.207 31.6826L254.738 31.3847L254.615 27.8545Z" fill="#EBEBEB"/>
<path d="M247.307 40.5649L247.995 46.0906L255.296 47.8455L255.312 47.8404L255.184 44.1676L255.169 44.1722L251.2 43.2479L250.85 40.4412L248.94 40.5079L247.307 40.5649Z" fill="#EBEBEB"/>
<path d="M259.322 38.378L259.072 42.9707L255.172 44.1709L255.301 47.8437L262.468 45.5852L262.5 44.9869L263.005 35.6641L263.058 34.7131L263.446 27.5457L254.603 27.8545L254.726 31.3847L259.7 31.211L259.505 34.8372L254.852 34.9997L254.975 38.5298L259.322 38.378Z" fill="white"/>
</g>
</g>
<g filter="url(#filter3_d_9620_1053)">
<rect x="372.954" y="5.00049" width="56" height="56" rx="8" transform="rotate(2 372.954 5.00049)" fill="white"/>
<rect x="373.195" y="5.25906" width="55.5" height="55.5" rx="7.75" transform="rotate(2 373.195 5.25906)" stroke="#F2F2F2" stroke-width="0.5"/>
<g clip-path="url(#clip2_9620_1053)">
<path d="M399.861 36.7898C401.439 36.8449 402.762 35.6109 402.817 34.0337C402.872 32.4565 401.638 31.1333 400.061 31.0782C398.484 31.0232 397.16 32.2571 397.105 33.8343C397.05 35.4115 398.284 36.7347 399.861 36.7898Z" fill="#00D8FF"/>
<path fill-rule="evenodd" clip-rule="evenodd" d="M400.163 28.1278C403.998 28.2617 407.54 28.9363 410.194 29.9547C413.391 31.1817 415.321 32.9397 415.268 34.4687C415.212 36.0621 413.041 37.7823 409.526 38.8123C406.868 39.591 403.395 39.9246 399.756 39.7975C396.024 39.6672 392.505 39.1173 389.88 38.1167C386.559 36.8504 384.598 34.9626 384.653 33.3996C384.706 31.883 386.664 30.2738 389.893 29.2729C392.622 28.4272 396.291 27.9926 400.163 28.1278L400.163 28.1278Z" stroke="#00D8FF" stroke-width="2"/>
<path fill-rule="evenodd" clip-rule="evenodd" d="M395.007 30.8712C397.039 27.6166 399.393 24.8846 401.601 23.0948C404.261 20.9383 406.748 20.1443 408.046 20.9543C409.398 21.7985 409.804 24.5388 408.94 28.0983C408.288 30.7894 406.841 33.9645 404.913 37.054C402.935 40.2215 400.701 42.9951 398.523 44.7686C395.767 47.013 393.152 47.7688 391.826 46.9406C390.538 46.1377 390.122 43.637 390.869 40.3396C391.499 37.5534 392.956 34.1576 395.007 30.8711L395.007 30.8712Z" stroke="#00D8FF" stroke-width="2"/>
<path fill-rule="evenodd" clip-rule="evenodd" d="M394.808 36.7096C393.003 33.3248 391.812 29.9202 391.364 27.1136C390.824 23.7321 391.378 21.1804 392.728 20.4607C394.135 19.7105 396.712 20.7277 399.364 23.2537C401.369 25.1635 403.398 28.0019 405.112 31.2156C406.869 34.5104 408.156 37.8312 408.604 40.6039C409.173 44.1125 408.521 46.7555 407.141 47.4913C405.802 48.2053 403.428 47.317 400.944 45.0236C398.845 43.086 396.631 40.128 394.808 36.7095L394.808 36.7096Z" stroke="#00D8FF" stroke-width="2"/>
</g>
</g>
<g filter="url(#filter4_d_9620_1053)">
<path d="M592.417 166.518C593.928 162.366 598.519 160.225 602.671 161.736L640.259 175.417C644.41 176.928 646.551 181.519 645.04 185.671L631.359 223.258C629.848 227.41 625.257 229.551 621.105 228.04L583.518 214.359C579.366 212.848 577.225 208.257 578.736 204.105L592.417 166.518Z" fill="white"/>
<path d="M602.585 161.971L640.173 175.652C644.195 177.116 646.269 181.563 644.805 185.585L631.124 223.173C629.66 227.195 625.213 229.269 621.191 227.805L583.603 214.124C579.581 212.66 577.507 208.213 578.971 204.191L592.652 166.603C594.116 162.581 598.563 160.507 602.585 161.971Z" stroke="#F2F2F2" stroke-width="0.5"/>
<g clip-path="url(#clip3_9620_1053)">
<mask id="mask0_9620_1053" style="mask-type:luminance" maskUnits="userSpaceOnUse" x="599" y="180" width="31" height="35">
<path d="M624.377 198.12L613.336 203.271L618.483 214.314L609.233 210.948L604.083 199.904L615.128 194.754L624.377 198.12ZM620.178 180.878L599.673 190.44L602.615 196.75L629.427 184.245L620.178 180.878Z" fill="white"/>
</mask>
<g mask="url(#mask0_9620_1053)">
<path d="M604.086 199.905L607.026 206.214L624.377 198.12L615.128 194.754L604.086 199.905Z" fill="#39CEFD"/>
</g>
<mask id="mask1_9620_1053" style="mask-type:luminance" maskUnits="userSpaceOnUse" x="599" y="180" width="31" height="35">
<path d="M624.377 198.12L613.336 203.271L618.483 214.314L609.233 210.948L604.083 199.904L615.128 194.754L624.377 198.12ZM620.178 180.878L599.673 190.44L602.615 196.75L629.427 184.245L620.178 180.878Z" fill="white"/>
</mask>
<g mask="url(#mask1_9620_1053)">
<path d="M620.178 180.878L629.427 184.245L602.615 196.75L599.673 190.44L620.178 180.878Z" fill="#39CEFD"/>
</g>
<mask id="mask2_9620_1053" style="mask-type:luminance" maskUnits="userSpaceOnUse" x="599" y="180" width="31" height="35">
<path d="M624.377 198.12L613.336 203.271L618.483 214.314L609.233 210.948L604.083 199.904L615.128 194.754L624.377 198.12ZM620.178 180.878L599.673 190.44L602.615 196.75L629.427 184.245L620.178 180.878Z" fill="white"/>
</mask>
<g mask="url(#mask2_9620_1053)">
<path d="M607.026 206.214L609.235 210.945L618.484 214.312L613.336 203.271L607.026 206.214Z" fill="#03569B"/>
</g>
<mask id="mask3_9620_1053" style="mask-type:luminance" maskUnits="userSpaceOnUse" x="599" y="180" width="31" height="35">
<path d="M624.377 198.12L613.336 203.271L618.483 214.314L609.233 210.948L604.083 199.904L615.128 194.754L624.377 198.12ZM620.178 180.878L599.673 190.44L602.615 196.75L629.427 184.245L620.178 180.878Z" fill="white"/>
</mask>
<g mask="url(#mask3_9620_1053)">
<path d="M614.752 206.334L613.336 203.271L607.026 206.214L614.752 206.334Z" fill="url(#paint13_linear_9620_1053)"/>
</g>
<mask id="mask4_9620_1053" style="mask-type:luminance" maskUnits="userSpaceOnUse" x="599" y="180" width="31" height="35">
<path d="M624.377 198.12L613.336 203.271L618.483 214.314L609.233 210.948L604.083 199.904L615.128 194.754L624.377 198.12ZM620.178 180.878L599.673 190.44L602.615 196.75L629.427 184.245L620.178 180.878Z" fill="white"/>
</mask>
<g mask="url(#mask4_9620_1053)">
<path d="M604.087 199.903L610.397 196.96L613.339 203.27L607.029 206.213L604.087 199.903Z" fill="#16B9FD"/>
</g>
<path d="M624.377 198.12L613.336 203.271L618.483 214.314L609.233 210.948L604.083 199.904L615.128 194.754L624.377 198.12ZM620.178 180.878L599.673 190.44L602.615 196.75L629.427 184.245L620.178 180.878Z" fill="url(#paint14_radial_9620_1053)"/>
</g>
</g>
<path fill-rule="evenodd" clip-rule="evenodd" d="M44.9792 195.127C44.7556 195.187 44.5594 195.29 44.3855 195.404C44.8679 195.569 45.1873 195.867 45.4105 196.245C45.4326 196.298 45.4599 196.334 45.4825 196.389C45.505 196.444 45.5263 196.479 45.5401 196.531C45.7622 197.228 45.5694 197.373 45.527 197.831C45.4381 198.43 45.657 198.991 46.0594 199.378C46.1014 199.433 46.1492 199.483 46.2018 199.528C45.3543 197.582 46.9642 196.823 47.1064 196.107C46.9819 195.547 46.4267 195.301 45.9968 195.141C45.5962 195.024 45.2632 195.043 44.9773 195.119L44.9792 195.127ZM47.65 194.902C47.6662 195.094 47.6791 195.04 47.6941 195.14L47.7318 195.354L47.7283 195.561C47.7272 195.63 47.7224 195.7 47.7157 195.771L47.6769 195.978C47.6619 196.017 47.6537 196.053 47.6383 196.09L47.6102 196.176L47.532 196.368C47.4971 196.429 47.472 196.496 47.4246 196.554C47.3773 196.612 47.3549 196.675 47.3088 196.731C47.1746 196.904 47.0076 197.051 46.8641 197.219C46.8199 197.274 46.7737 197.322 46.737 197.383C46.693 197.436 46.6537 197.492 46.6193 197.552C46.577 197.614 46.5495 197.673 46.5134 197.743C46.4773 197.814 46.4534 197.871 46.4351 197.935L46.3703 198.133L46.3315 198.34L46.3164 198.541L46.3155 198.757C46.317 198.792 46.3278 198.832 46.3251 198.867C46.3225 198.901 46.335 198.933 46.3323 198.967L46.379 199.17C46.3918 199.218 46.4046 199.266 46.4257 199.315C46.4428 199.379 46.4674 199.441 46.5035 199.51C46.5397 199.579 46.5617 199.632 46.5954 199.692L46.7111 199.867C46.7403 199.903 46.7731 199.937 46.7956 199.962L44.76 199.742L43.7667 199.752L43.2284 199.767C42.7201 199.8 42.2138 199.858 41.7113 199.942C41.6929 199.947 41.6855 199.941 41.669 199.945L40.214 200.256L39.1745 200.578C38.6939 200.742 38.2211 200.936 37.7551 201.147L37.4112 201.308L36.7317 201.661L36.3961 201.853L36.0923 202.098L35.8607 202.289C35.8444 202.302 35.8297 202.305 35.8253 202.318L35.6311 202.488C35.6093 202.502 35.5957 202.517 35.5825 202.527L35.3676 202.722C35.319 202.761 35.2724 202.807 35.2298 202.845C35.2108 202.87 35.1831 202.891 35.1672 202.905L34.9907 203.082C34.9341 203.137 34.8807 203.194 34.8306 203.255L34.7006 203.408L34.559 203.583L34.4528 203.729C34.4365 203.742 34.4262 203.762 34.414 203.775L34.321 203.912C34.3186 203.932 34.3036 203.942 34.2969 203.954L34.1866 204.129L34.0679 204.324L33.9715 204.507C33.9581 204.53 33.94 204.551 33.9293 204.569C33.8997 204.631 33.8674 204.691 33.8324 204.75C33.83 204.771 33.815 204.781 33.8103 204.8L33.6785 205.041L33.3574 205.573C33.2451 205.741 33.1272 205.902 33.0026 206.045L32.6039 206.478C32.468 206.609 32.3191 206.735 32.1618 206.852C32.0109 206.97 31.8543 207.081 31.6928 207.184C31.3751 207.348 31.0668 207.576 30.7763 207.679C30.7121 207.697 30.6455 207.734 30.581 207.757L30.3921 207.859L30.2193 207.984C30.1607 208.027 30.1043 208.074 30.0504 208.123C30.0062 208.178 29.9491 208.229 29.9039 208.28C29.8587 208.332 29.8175 208.398 29.7808 208.459C29.7441 208.52 29.6963 208.584 29.6606 208.648L29.5677 208.844C29.5445 208.919 29.5121 208.989 29.4958 209.06C29.4696 209.13 29.4488 209.202 29.4336 209.275L29.4016 209.507L29.3843 209.736L29.3955 209.939C29.3972 210.041 29.4233 210.138 29.4264 210.186C29.4295 210.235 29.4549 210.293 29.4701 210.35C29.4779 210.385 29.4898 210.419 29.5054 210.452C29.5275 210.505 29.5518 210.552 29.5792 210.595L29.6735 210.727C29.712 210.776 29.7565 210.817 29.8022 210.856L29.946 210.975L30.116 211.067C30.1756 211.101 30.238 211.13 30.3026 211.154C30.5402 211.271 30.6008 211.314 30.8863 211.375C30.933 211.388 30.9778 211.394 31.0318 211.405C31.062 211.422 31.064 211.429 31.0776 211.444C31.1021 211.506 31.1358 211.565 31.1695 211.625C31.2025 211.687 31.2412 211.746 31.2852 211.8L31.3887 211.93C31.4009 211.946 31.4158 211.958 31.4233 211.964L31.5658 212.114L31.732 212.251L31.9084 212.366C31.9688 212.401 32.0273 212.429 32.0969 212.461L32.2888 212.539C32.3546 212.565 32.4184 212.583 32.4927 212.597C32.5612 212.615 32.631 212.628 32.7015 212.635C32.7555 212.646 32.8167 212.648 32.8757 212.647C32.9346 212.647 32.989 212.652 33.0221 212.651C33.1142 213.09 33.2151 213.503 33.3194 213.629C33.4354 213.769 33.6562 213.185 33.8584 212.531C33.9591 213.098 34.0999 213.756 34.2317 213.925C34.3634 214.094 34.686 213.347 34.9192 212.546C40.2497 209.709 46.4899 212.247 48.5206 217.648C48.1843 216.811 46.9901 216.614 46.5326 216.865C46.4534 217.522 46.2472 218.395 45.7153 219.042C45.6279 218.496 45.4586 217.96 45.2049 217.46C45.2233 218.246 45.0689 219.027 44.7526 219.746C44.0066 220.005 43.1476 219.842 42.596 219.397C42.5566 219.382 42.5361 219.334 42.5039 219.31L42.3945 219.158C42.356 219.109 42.3247 219.059 42.3017 219.002C42.2786 218.946 42.2649 218.894 42.2472 218.828L42.2148 218.707C42.2074 218.65 42.2091 218.591 42.2099 218.528L42.2197 218.344C42.238 218.281 42.2452 218.22 42.2699 218.15C42.3073 217.747 42.2189 217.417 41.9241 217.3C41.8676 217.28 41.814 217.27 41.7503 217.26C41.7154 217.261 41.6706 217.256 41.637 217.255L41.5665 217.248L41.387 217.253C41.328 217.252 41.269 217.259 41.212 217.274C41.1512 217.281 41.091 217.291 41.0316 217.305C40.9913 217.316 40.9529 217.334 40.9126 217.345C40.8529 217.36 40.7958 217.384 40.743 217.416L40.5827 217.492L40.4288 217.592L40.2889 217.708L40.1584 217.83C38.6153 219.55 40.4973 222.101 41.9914 222.588C41.5347 222.805 41.0715 223.041 40.9656 223.182C41.3555 223.317 41.763 223.4 42.1808 223.449L43.5769 223.468C44.2816 223.436 44.9666 223.302 45.6377 223.079C47.3359 222.488 48.7815 221.335 49.7353 219.811C50.6891 218.287 51.0941 216.482 50.8832 214.697L50.9868 214.893L51.1805 215.323L51.2714 215.53L51.3536 215.763L51.4427 216.022L51.4771 216.151C51.4879 216.191 51.508 216.237 51.5188 216.277C51.5296 216.317 51.537 216.374 51.5507 216.426L51.5802 216.536C51.5949 216.591 51.6009 216.642 51.6156 216.697C51.624 216.728 51.6328 216.761 51.6363 216.804L51.6761 216.982C51.6751 217.007 51.6815 217.031 51.6884 217.057L51.7137 217.247C51.7201 217.27 51.7265 217.294 51.726 217.322L51.7572 217.563L51.7621 217.581L51.7744 217.818L51.7906 218.069L51.7932 218.335L51.7959 218.602L51.784 218.88L51.7328 219.393L51.6998 219.651L51.6498 219.904C51.6488 219.93 51.6422 219.949 51.6407 219.966C51.3914 221.184 50.8691 222.314 50.0992 223.29C50.0459 223.348 49.9945 223.413 49.9431 223.478C49.9297 223.501 49.9092 223.512 49.8989 223.533L49.7553 223.701L49.7919 223.742L49.7993 223.74L50.1238 223.602L50.1311 223.6L50.7249 223.323C50.7779 223.301 50.8395 223.267 50.8901 223.236L50.9937 223.182L51.154 223.106L51.2898 223.026C52.0393 222.619 52.7435 222.146 53.4079 221.634C52.6005 223.716 51.2673 225.575 49.5181 227.032C50.423 226.72 51.3043 226.321 52.1227 225.827C55.0972 224.008 57.2337 221.107 58.077 217.744C58.2443 219.688 57.9798 221.646 57.3025 223.476C57.9422 222.755 58.4966 221.971 58.9671 221.124C60.2593 218.77 60.7999 216.077 60.5161 213.407C61.13 214.598 61.5577 215.886 61.7844 217.208C65.4083 207.585 57.8588 200.637 55.0467 199.029C55.0344 199.012 55.022 199.01 55.0175 198.993C55.0247 199.093 55.0453 199.192 55.0635 199.289C55.0888 199.479 55.1126 199.663 55.1267 199.848C55.1409 200.033 55.1331 200.224 55.1335 200.416C55.134 200.608 55.1049 200.793 55.0786 200.981C55.0523 201.169 55.0149 201.352 54.9714 201.534C54.9251 201.715 54.8699 201.893 54.8059 202.068C54.7422 202.248 54.6692 202.423 54.5919 202.589C54.5096 202.76 54.4195 202.928 54.3219 203.091C54.2608 203.186 54.2061 203.268 54.1431 203.355L54.0025 203.564C53.8898 203.716 53.7678 203.861 53.6374 203.998C53.5108 204.138 53.3774 204.271 53.2376 204.398C53.0906 204.524 52.9411 204.64 52.7916 204.757C52.6382 204.867 52.4796 204.97 52.3162 205.065C52.153 205.16 51.9787 205.25 51.8115 205.33C51.6444 205.41 51.4577 205.476 51.2843 205.54C51.1579 205.582 51.0326 205.627 50.9226 205.657C50.7393 205.706 50.5511 205.736 50.3693 205.769C50.1876 205.802 49.9919 205.827 49.8014 205.835C49.6107 205.851 49.4191 205.854 49.228 205.843L49.2207 205.845C49.3917 205.78 49.5638 205.718 49.7351 205.639C49.9064 205.559 50.0765 205.469 50.2398 205.374C50.403 205.279 50.5637 205.175 50.7152 205.066C50.8666 204.956 51.0205 204.827 51.1612 204.706C51.304 204.582 51.4407 204.451 51.5707 204.314C51.6949 204.169 51.819 204.023 51.9339 203.873C52.0475 203.722 52.1518 203.565 52.2459 203.402C52.3491 203.245 52.4338 203.077 52.5184 202.909C52.603 202.741 52.6741 202.558 52.7398 202.386C52.7517 202.357 52.758 202.322 52.7658 202.292L52.9004 201.863C52.9456 201.68 52.9831 201.497 53.0075 201.31C53.032 201.123 53.0528 200.936 53.0625 200.745C53.0722 200.554 53.0655 200.375 53.0586 200.188C53.0518 200.001 53.026 199.81 52.9954 199.629C52.9647 199.449 52.9283 199.254 52.8807 199.077C52.8463 198.948 52.8046 198.822 52.7641 198.715C52.6966 198.537 52.627 198.365 52.556 198.195C52.4757 198.023 52.3873 197.854 52.2911 197.69C52.1909 197.536 52.0888 197.375 51.9776 197.224C51.8664 197.073 51.7406 196.926 51.6214 196.789C51.5021 196.652 51.3594 196.516 51.2197 196.39C51.0799 196.264 50.9311 196.149 50.781 196.036L50.3049 195.725C50.2187 195.675 50.1312 195.627 50.0423 195.582C49.6083 195.399 49.1661 195.236 48.7171 195.094C48.6538 195.077 48.5979 195.067 48.536 195.056C48.2269 194.958 47.954 194.937 47.6849 194.922L47.65 194.902Z" fill="#EA2845"/>
<g filter="url(#filter5_d_9620_1053)">
<path d="M496.335 70.8785C497.103 66.5273 501.252 63.622 505.603 64.3892L544.995 71.3351C549.347 72.1023 552.252 76.2516 551.485 80.6028L544.539 119.995C543.772 124.346 539.622 127.252 535.271 126.484L495.879 119.538C491.528 118.771 488.622 114.622 489.389 110.271L496.335 70.8785Z" fill="white"/>
<path d="M505.56 64.6354L544.952 71.5813C549.167 72.3246 551.982 76.3442 551.238 80.5593L544.293 119.952C543.549 124.167 539.53 126.981 535.314 126.238L495.922 119.292C491.707 118.549 488.892 114.529 489.636 110.314L496.582 70.9219C497.325 66.7067 501.344 63.8921 505.56 64.6354Z" stroke="#F2F2F2" stroke-width="0.5"/>
<g clip-path="url(#clip4_9620_1053)">
<path d="M506.837 105.985L509.306 77.2271L537.065 82.1218L529.549 109.99L517.598 111.183" fill="#E34F26"/>
<path d="M518.093 108.731L527.709 107.825L534.14 83.954L522.814 81.957" fill="#EF652A"/>
<path d="M520.958 92.4822L516.342 91.6682L516.663 88.044L521.587 88.9123L522.195 85.4654L522.134 85.4546L513.455 83.9243L513.354 84.8584L512.522 94.6122L520.339 95.9906L520.958 92.4822ZM519.363 101.53L519.301 101.519L515.608 99.7892L515.85 96.976L514.004 96.6504L512.403 96.3682L511.868 101.922L518.661 105.151L518.722 105.162L519.363 101.53Z" fill="#EBEBEB"/>
<path d="M520.897 92.4713L520.278 95.9797L524.586 96.7394L523.363 101.157L519.301 101.519L518.661 105.151L526.148 104.44L526.318 103.835L528.735 94.8055L529.021 93.9039L528.036 93.7303L520.897 92.4713ZM522.134 85.4546L521.754 87.6089L521.526 88.9014L529.958 90.3883L530.15 89.6605L530.65 87.9081L530.874 86.9957L522.134 85.4546Z" fill="white"/>
</g>
</g>
<defs>
<filter id="filter0_d_9620_1053" x="598.756" y="271.88" width="84.0484" height="94.6499" filterUnits="userSpaceOnUse" color-interpolation-filters="sRGB">
<feFlood flood-opacity="0" result="BackgroundImageFix"/>
<feColorMatrix in="SourceAlpha" type="matrix" values="0 0 0 0 0 0 0 0 0 0 0 0 0 0 0 0 0 0 127 0" result="hardAlpha"/>
<feOffset dy="5.12"/>
<feGaussianBlur stdDeviation="5.12"/>
<feComposite in2="hardAlpha" operator="out"/>
<feColorMatrix type="matrix" values="0 0 0 0 0 0 0 0 0 0 0 0 0 0 0 0 0 0 0.15 0"/>
<feBlend mode="normal" in2="BackgroundImageFix" result="effect1_dropShadow_9620_1053"/>
<feBlend mode="normal" in="SourceGraphic" in2="effect1_dropShadow_9620_1053" result="shape"/>
</filter>
<filter id="filter1_d_9620_1053" x="69.76" y="36.8805" width="89.0659" height="89.0654" filterUnits="userSpaceOnUse" color-interpolation-filters="sRGB">
<feFlood flood-opacity="0" result="BackgroundImageFix"/>
<feColorMatrix in="SourceAlpha" type="matrix" values="0 0 0 0 0 0 0 0 0 0 0 0 0 0 0 0 0 0 127 0" result="hardAlpha"/>
<feOffset dy="5.12"/>
<feGaussianBlur stdDeviation="5.12"/>
<feComposite in2="hardAlpha" operator="out"/>
<feColorMatrix type="matrix" values="0 0 0 0 0 0 0 0 0 0 0 0 0 0 0 0 0 0 0.15 0"/>
<feBlend mode="normal" in2="BackgroundImageFix" result="effect1_dropShadow_9620_1053"/>
<feBlend mode="normal" in="SourceGraphic" in2="effect1_dropShadow_9620_1053" result="shape"/>
</filter>
<filter id="filter2_d_9620_1053" x="215.76" y="3.88098" width="78.3999" height="78.4004" filterUnits="userSpaceOnUse" color-interpolation-filters="sRGB">
<feFlood flood-opacity="0" result="BackgroundImageFix"/>
<feColorMatrix in="SourceAlpha" type="matrix" values="0 0 0 0 0 0 0 0 0 0 0 0 0 0 0 0 0 0 127 0" result="hardAlpha"/>
<feOffset dy="5.12"/>
<feGaussianBlur stdDeviation="5.12"/>
<feComposite in2="hardAlpha" operator="out"/>
<feColorMatrix type="matrix" values="0 0 0 0 0 0 0 0 0 0 0 0 0 0 0 0 0 0 0.15 0"/>
<feBlend mode="normal" in2="BackgroundImageFix" result="effect1_dropShadow_9620_1053"/>
<feBlend mode="normal" in="SourceGraphic" in2="effect1_dropShadow_9620_1053" result="shape"/>
</filter>
<filter id="filter3_d_9620_1053" x="360.76" y="-0.119512" width="78.3999" height="78.4004" filterUnits="userSpaceOnUse" color-interpolation-filters="sRGB">
<feFlood flood-opacity="0" result="BackgroundImageFix"/>
<feColorMatrix in="SourceAlpha" type="matrix" values="0 0 0 0 0 0 0 0 0 0 0 0 0 0 0 0 0 0 127 0" result="hardAlpha"/>
<feOffset dy="5.12"/>
<feGaussianBlur stdDeviation="5.12"/>
<feComposite in2="hardAlpha" operator="out"/>
<feColorMatrix type="matrix" values="0 0 0 0 0 0 0 0 0 0 0 0 0 0 0 0 0 0 0.15 0"/>
<feBlend mode="normal" in2="BackgroundImageFix" result="effect1_dropShadow_9620_1053"/>
<feBlend mode="normal" in="SourceGraphic" in2="effect1_dropShadow_9620_1053" result="shape"/>
</filter>
<filter id="filter4_d_9620_1053" x="565.76" y="153.88" width="92.2564" height="92.2559" filterUnits="userSpaceOnUse" color-interpolation-filters="sRGB">
<feFlood flood-opacity="0" result="BackgroundImageFix"/>
<feColorMatrix in="SourceAlpha" type="matrix" values="0 0 0 0 0 0 0 0 0 0 0 0 0 0 0 0 0 0 127 0" result="hardAlpha"/>
<feOffset dy="5.12"/>
<feGaussianBlur stdDeviation="5.12"/>
<feComposite in2="hardAlpha" operator="out"/>
<feColorMatrix type="matrix" values="0 0 0 0 0 0 0 0 0 0 0 0 0 0 0 0 0 0 0.15 0"/>
<feBlend mode="normal" in2="BackgroundImageFix" result="effect1_dropShadow_9620_1053"/>
<feBlend mode="normal" in="SourceGraphic" in2="effect1_dropShadow_9620_1053" result="shape"/>
</filter>
<filter id="filter5_d_9620_1053" x="477.76" y="57.88" width="85.354" height="85.3535" filterUnits="userSpaceOnUse" color-interpolation-filters="sRGB">
<feFlood flood-opacity="0" result="BackgroundImageFix"/>
<feColorMatrix in="SourceAlpha" type="matrix" values="0 0 0 0 0 0 0 0 0 0 0 0 0 0 0 0 0 0 127 0" result="hardAlpha"/>
<feOffset dy="5.12"/>
<feGaussianBlur stdDeviation="5.12"/>
<feComposite in2="hardAlpha" operator="out"/>
<feColorMatrix type="matrix" values="0 0 0 0 0 0 0 0 0 0 0 0 0 0 0 0 0 0 0.15 0"/>
<feBlend mode="normal" in2="BackgroundImageFix" result="effect1_dropShadow_9620_1053"/>
<feBlend mode="normal" in="SourceGraphic" in2="effect1_dropShadow_9620_1053" result="shape"/>
</filter>
<linearGradient id="paint0_linear_9620_1053" x1="114.5" y1="15" x2="114.5" y2="388" gradientUnits="userSpaceOnUse">
<stop stop-color="white"/>
<stop offset="0.5" stop-color="#CCCCCC"/>
<stop offset="1" stop-color="white"/>
</linearGradient>
<linearGradient id="paint1_linear_9620_1053" x1="228.5" y1="15" x2="228.5" y2="388" gradientUnits="userSpaceOnUse">
<stop stop-color="white"/>
<stop offset="0.5" stop-color="#CCCCCC"/>
<stop offset="1" stop-color="white"/>
</linearGradient>
<linearGradient id="paint2_linear_9620_1053" x1="342.5" y1="15" x2="342.5" y2="388" gradientUnits="userSpaceOnUse">
<stop stop-color="white"/>
<stop offset="0.5" stop-color="#CCCCCC"/>
<stop offset="1" stop-color="white"/>
</linearGradient>
<linearGradient id="paint3_linear_9620_1053" x1="456.5" y1="15" x2="456.5" y2="388" gradientUnits="userSpaceOnUse">
<stop stop-color="white"/>
<stop offset="0.5" stop-color="#CCCCCC"/>
<stop offset="1" stop-color="white"/>
</linearGradient>
<linearGradient id="paint4_linear_9620_1053" x1="570.5" y1="15" x2="570.5" y2="388" gradientUnits="userSpaceOnUse">
<stop stop-color="white"/>
<stop offset="0.5" stop-color="#CCCCCC"/>
<stop offset="1" stop-color="white"/>
</linearGradient>
<linearGradient id="paint5_linear_9620_1053" x1="342" y1="68.2856" x2="342" y2="69.2856" gradientUnits="userSpaceOnUse">
<stop stop-color="white"/>
<stop offset="0.5" stop-color="#CCCCCC"/>
<stop offset="1" stop-color="white"/>
</linearGradient>
<linearGradient id="paint6_linear_9620_1053" x1="342" y1="121.571" x2="342" y2="122.571" gradientUnits="userSpaceOnUse">
<stop stop-color="white"/>
<stop offset="0.5" stop-color="#CCCCCC"/>
<stop offset="1" stop-color="white"/>
</linearGradient>
<linearGradient id="paint7_linear_9620_1053" x1="342" y1="174.857" x2="342" y2="175.857" gradientUnits="userSpaceOnUse">
<stop stop-color="white"/>
<stop offset="0.5" stop-color="#CCCCCC"/>
<stop offset="1" stop-color="white"/>
</linearGradient>
<linearGradient id="paint8_linear_9620_1053" x1="342" y1="228.143" x2="342" y2="229.143" gradientUnits="userSpaceOnUse">
<stop stop-color="white"/>
<stop offset="0.5" stop-color="#CCCCCC"/>
<stop offset="1" stop-color="white"/>
</linearGradient>
<linearGradient id="paint9_linear_9620_1053" x1="342" y1="281.429" x2="342" y2="282.429" gradientUnits="userSpaceOnUse">
<stop stop-color="white"/>
<stop offset="0.5" stop-color="#CCCCCC"/>
<stop offset="1" stop-color="white"/>
</linearGradient>
<linearGradient id="paint10_linear_9620_1053" x1="342" y1="334.714" x2="342" y2="335.714" gradientUnits="userSpaceOnUse">
<stop stop-color="white"/>
<stop offset="0.5" stop-color="#CCCCCC"/>
<stop offset="1" stop-color="white"/>
</linearGradient>
<linearGradient id="paint11_linear_9620_1053" x1="649.716" y1="310.204" x2="626.27" y2="305.394" gradientUnits="userSpaceOnUse">
<stop stop-color="#366A96"/>
<stop offset="1" stop-color="#3679B0"/>
</linearGradient>
<linearGradient id="paint12_linear_9620_1053" x1="655.586" y1="323.788" x2="609.159" y2="314.651" gradientUnits="userSpaceOnUse">
<stop stop-color="#FFC836"/>
<stop offset="1" stop-color="#FFE873"/>
</linearGradient>
<linearGradient id="paint13_linear_9620_1053" x1="608.051" y1="207.598" x2="612.751" y2="205.406" gradientUnits="userSpaceOnUse">
<stop stop-color="#1A237E" stop-opacity="0.4"/>
<stop offset="1" stop-color="#1A237E" stop-opacity="0"/>
</linearGradient>
<radialGradient id="paint14_radial_9620_1053" cx="0" cy="0" r="1" gradientUnits="userSpaceOnUse" gradientTransform="translate(605.081 177.704) rotate(20) scale(39.1478 39.1478)">
<stop stop-color="white" stop-opacity="0.1"/>
<stop offset="1" stop-color="white" stop-opacity="0"/>
</radialGradient>
<clipPath id="clip0_9620_1053">
<rect width="32" height="32" fill="white" transform="translate(94.6973 64.9795) rotate(-15)"/>
</clipPath>
<clipPath id="clip1_9620_1053">
<rect width="32" height="32" fill="white" transform="translate(238.411 22.5293) rotate(-2)"/>
</clipPath>
<clipPath id="clip2_9620_1053">
<rect width="32" height="32" fill="white" transform="translate(384.528 17.4121) rotate(2)"/>
</clipPath>
<clipPath id="clip3_9620_1053">
<rect width="32" height="32" fill="white" transform="translate(602.325 174.38) rotate(20)"/>
</clipPath>
<clipPath id="clip4_9620_1053">
<rect width="32" height="32" fill="white" transform="translate(507.459 76.9014) rotate(10)"/>
</clipPath>
</defs>
</svg>
