<svg width="20" height="20" viewBox="0 0 20 20" fill="none" xmlns="http://www.w3.org/2000/svg">
<path d="M1.66699 10.6916V12.5C1.66699 16.6666 3.33366 18.3333 7.50033 18.3333H12.5003C16.667 18.3333 18.3337 16.6666 18.3337 12.5V7.49996C18.3337 3.33329 16.667 1.66663 12.5003 1.66663H7.50033C3.33366 1.66663 1.66699 3.33329 1.66699 7.49996" stroke="#0559C3" stroke-width="1.5" stroke-linecap="round" stroke-linejoin="round"/>
<path d="M8.42492 9.29175H6.21659C5.69159 9.29175 5.2666 9.71671 5.2666 10.2417V14.5084H8.42492V9.29175V9.29175Z" stroke="#0559C3" stroke-width="1.5" stroke-miterlimit="10" stroke-linecap="round" stroke-linejoin="round"/>
<path d="M10.6337 5.5H9.36698C8.84198 5.5 8.41699 5.92501 8.41699 6.45001V14.5H11.5753V6.45001C11.5753 5.92501 11.1587 5.5 10.6337 5.5Z" stroke="#0559C3" stroke-width="1.5" stroke-miterlimit="10" stroke-linecap="round" stroke-linejoin="round"/>
<path d="M13.7913 10.7084H11.583V14.5001H14.7413V11.6584C14.733 11.1334 14.308 10.7084 13.7913 10.7084Z" stroke="#0559C3" stroke-width="1.5" stroke-miterlimit="10" stroke-linecap="round" stroke-linejoin="round"/>
</svg>
