<svg width="49" height="48" viewBox="0 0 49 48" fill="none" xmlns="http://www.w3.org/2000/svg">
<rect x="0.333008" width="48" height="48" rx="5" fill="#F5ECFF"/>
<g clip-path="url(#clip0_10126_4511)">
<path d="M16.333 13.3333H20.333C20.333 13.3333 20.333 17.3333 24.333 17.3333C28.333 17.3333 28.333 13.3333 28.333 13.3333H32.333M32.333 22.6666V33.8666C32.333 34.3085 31.9749 34.6666 31.533 34.6666H17.133C16.6912 34.6666 16.333 34.3085 16.333 33.8666V22.6666" stroke="#4F059F" stroke-width="2" stroke-linecap="round" stroke-linejoin="round"/>
<path d="M32.333 13.3333L38.2569 15.7028C38.6671 15.8669 38.8666 16.3325 38.7026 16.7427L36.5342 22.1637C36.4126 22.4674 36.1185 22.6666 35.7914 22.6666H32.333" stroke="#4F059F" stroke-width="2" stroke-linecap="round" stroke-linejoin="round"/>
<path d="M16.3332 13.3333L10.4093 15.7028C9.99912 15.8669 9.79959 16.3325 9.96368 16.7427L12.1321 22.1637C12.2536 22.4674 12.5477 22.6666 12.8749 22.6666H16.3332" stroke="#4F059F" stroke-width="2" stroke-linecap="round" stroke-linejoin="round"/>
</g>
<defs>
<clipPath id="clip0_10126_4511">
<rect width="32" height="32" fill="white" transform="translate(8.33301 8)"/>
</clipPath>
</defs>
</svg>
