<svg width="1440" height="741" viewBox="0 0 1440 741" fill="none" xmlns="http://www.w3.org/2000/svg">
<g clip-path="url(#clip0_9728_1918)">
<rect width="1440" height="741" fill="white"/>
<g filter="url(#filter0_f_9728_1918)">
<path d="M717.821 140.01C409.918 141.875 272 404 272 404H1168C1168 404 1025.72 138.144 717.821 140.01Z" fill="#CBD6FB"/>
</g>
<g filter="url(#filter1_f_9728_1918)">
<path d="M713.189 201.005C527.966 201.881 445 325 445 325H984C984 325 898.412 200.128 713.189 201.005Z" fill="#CEEDF9" fill-opacity="0.5"/>
</g>
<g filter="url(#filter2_d_9728_1918)">
<path d="M716.295 271.016C122.139 274.019 -144 696 -144 696H1585C1585 696 1310.45 268.012 716.295 271.016Z" fill="white"/>
</g>
</g>
<defs>
<filter id="filter0_f_9728_1918" x="222" y="90" width="996" height="364" filterUnits="userSpaceOnUse" color-interpolation-filters="sRGB">
<feFlood flood-opacity="0" result="BackgroundImageFix"/>
<feBlend mode="normal" in="SourceGraphic" in2="BackgroundImageFix" result="shape"/>
<feGaussianBlur stdDeviation="25" result="effect1_foregroundBlur_9728_1918"/>
</filter>
<filter id="filter1_f_9728_1918" x="420" y="176" width="589" height="174" filterUnits="userSpaceOnUse" color-interpolation-filters="sRGB">
<feFlood flood-opacity="0" result="BackgroundImageFix"/>
<feBlend mode="normal" in="SourceGraphic" in2="BackgroundImageFix" result="shape"/>
<feGaussianBlur stdDeviation="12.5" result="effect1_foregroundBlur_9728_1918"/>
</filter>
<filter id="filter2_d_9728_1918" x="-194" y="213" width="1829" height="525" filterUnits="userSpaceOnUse" color-interpolation-filters="sRGB">
<feFlood flood-opacity="0" result="BackgroundImageFix"/>
<feColorMatrix in="SourceAlpha" type="matrix" values="0 0 0 0 0 0 0 0 0 0 0 0 0 0 0 0 0 0 127 0" result="hardAlpha"/>
<feOffset dy="-8"/>
<feGaussianBlur stdDeviation="25"/>
<feComposite in2="hardAlpha" operator="out"/>
<feColorMatrix type="matrix" values="0 0 0 0 0.2 0 0 0 0 0.2 0 0 0 0 0.2 0 0 0 0.07 0"/>
<feBlend mode="normal" in2="BackgroundImageFix" result="effect1_dropShadow_9728_1918"/>
<feBlend mode="normal" in="SourceGraphic" in2="effect1_dropShadow_9728_1918" result="shape"/>
</filter>
<clipPath id="clip0_9728_1918">
<rect width="1440" height="741" fill="white"/>
</clipPath>
</defs>
</svg>
