<svg width="48" height="48" viewBox="0 0 48 48" fill="none" xmlns="http://www.w3.org/2000/svg">
<rect width="48" height="48" rx="5" fill="#FEECDA"/>
<path d="M33.426 14.5734L14.5727 33.4267C12.1593 31.0134 10.666 27.6801 10.666 24.0001C10.666 16.6401 16.6393 10.6667 23.9993 10.6667C27.6793 10.6667 31.0127 12.1601 33.426 14.5734Z" stroke="#8B4600" stroke-width="1.8" stroke-linecap="round" stroke-linejoin="round"/>
<path d="M37.3342 23.9999C37.3342 31.3599 31.3609 37.3332 24.0009 37.3332C20.3209 37.3332 16.9876 35.8399 14.5742 33.4266L33.4276 14.5732C35.8409 16.9866 37.3342 20.3199 37.3342 23.9999Z" stroke="#8B4600" stroke-width="1.8" stroke-linecap="round" stroke-linejoin="round"/>
<path d="M18.3477 29.6533L25.8809 37.2" stroke="#8B4600" stroke-width="1.8" stroke-linecap="round" stroke-linejoin="round"/>
<path d="M23.0527 24.9468L31.8261 33.7068" stroke="#8B4600" stroke-width="1.8" stroke-linecap="round" stroke-linejoin="round"/>
<path d="M27.7734 20.2266L36.1601 28.6266" stroke="#8B4600" stroke-width="1.8" stroke-linecap="round" stroke-linejoin="round"/>
</svg>
