<svg width="49" height="48" viewBox="0 0 49 48" fill="none" xmlns="http://www.w3.org/2000/svg">
<rect x="0.333008" width="48" height="48" rx="5" fill="#EAF3FF"/>
<path d="M11 20.0001V17.3334C11 13.3334 13.6667 10.6667 17.6667 10.6667H31C35 10.6667 37.6667 13.3334 37.6667 17.3334V20.0001" stroke="#003E8B" stroke-width="1.8" stroke-miterlimit="10" stroke-linecap="round" stroke-linejoin="round"/>
<path d="M11 28V30.6667C11 34.6667 13.6667 37.3333 17.6667 37.3333H31C35 37.3333 37.6667 34.6667 37.6667 30.6667V28" stroke="#003E8B" stroke-width="1.8" stroke-miterlimit="10" stroke-linecap="round" stroke-linejoin="round"/>
<path d="M17.2666 20.3467L24.3333 24.44L31.3466 20.3734" stroke="#003E8B" stroke-width="1.8" stroke-linecap="round" stroke-linejoin="round"/>
<path d="M24.333 31.6934V24.4268" stroke="#003E8B" stroke-width="1.8" stroke-linecap="round" stroke-linejoin="round"/>
<path d="M22.68 16.3866L18.4133 18.76C17.4533 19.2933 16.6533 20.6399 16.6533 21.7466V26.2666C16.6533 27.3733 17.44 28.7199 18.4133 29.2533L22.68 31.6266C23.5866 32.1332 25.08 32.1332 26 31.6266L30.2666 29.2533C31.2266 28.7199 32.0267 27.3733 32.0267 26.2666V21.7466C32.0267 20.6399 31.24 19.2933 30.2666 18.76L26 16.3866C25.08 15.8666 23.5866 15.8666 22.68 16.3866Z" stroke="#003E8B" stroke-width="1.8" stroke-linecap="round" stroke-linejoin="round"/>
</svg>
