<svg width="48" height="48" viewBox="0 0 48 48" fill="none" xmlns="http://www.w3.org/2000/svg">
<rect width="48" height="48" rx="5" fill="#FFFFE8"/>
<path d="M24 26.6667H25.3333C26.8 26.6667 28 25.4667 28 24.0001V10.6667H16C14 10.6667 12.2533 11.7734 11.3467 13.4001" stroke="#888A00" stroke-width="1.8" stroke-linecap="round" stroke-linejoin="round"/>
<path d="M10.667 30.6667C10.667 32.8801 12.4537 34.6667 14.667 34.6667H16.0003C16.0003 33.2001 17.2003 32.0001 18.667 32.0001C20.1337 32.0001 21.3337 33.2001 21.3337 34.6667H26.667C26.667 33.2001 27.867 32.0001 29.3337 32.0001C30.8003 32.0001 32.0003 33.2001 32.0003 34.6667H33.3337C35.547 34.6667 37.3337 32.8801 37.3337 30.6667V26.6667H33.3337C32.6003 26.6667 32.0003 26.0667 32.0003 25.3334V21.3334C32.0003 20.6001 32.6003 20.0001 33.3337 20.0001H35.0536L32.7737 16.0134C32.2937 15.1868 31.4137 14.6667 30.4537 14.6667H28.0003V24.0001C28.0003 25.4667 26.8003 26.6667 25.3337 26.6667H24.0003" stroke="#888A00" stroke-width="1.8" stroke-linecap="round" stroke-linejoin="round"/>
<path d="M18.6667 37.3333C20.1394 37.3333 21.3333 36.1394 21.3333 34.6667C21.3333 33.1939 20.1394 32 18.6667 32C17.1939 32 16 33.1939 16 34.6667C16 36.1394 17.1939 37.3333 18.6667 37.3333Z" stroke="#888A00" stroke-width="1.8" stroke-linecap="round" stroke-linejoin="round"/>
<path d="M29.3337 37.3333C30.8064 37.3333 32.0003 36.1394 32.0003 34.6667C32.0003 33.1939 30.8064 32 29.3337 32C27.8609 32 26.667 33.1939 26.667 34.6667C26.667 36.1394 27.8609 37.3333 29.3337 37.3333Z" stroke="#888A00" stroke-width="1.8" stroke-linecap="round" stroke-linejoin="round"/>
<path d="M37.3333 24V26.6667H33.3333C32.6 26.6667 32 26.0667 32 25.3333V21.3333C32 20.6 32.6 20 33.3333 20H35.0533L37.3333 24Z" stroke="#888A00" stroke-width="1.8" stroke-linecap="round" stroke-linejoin="round"/>
<path d="M10.667 18.6667H18.667" stroke="#888A00" stroke-width="1.8" stroke-linecap="round" stroke-linejoin="round"/>
<path d="M10.667 22.6667H16.0003" stroke="#888A00" stroke-width="1.8" stroke-linecap="round" stroke-linejoin="round"/>
<path d="M10.667 26.6667H13.3337" stroke="#888A00" stroke-width="1.8" stroke-linecap="round" stroke-linejoin="round"/>
</svg>
